<svg width="272" height="82" viewBox="0 0 272 82" fill="none" xmlns="http://www.w3.org/2000/svg">
<path d="M272 64.123V0.246582L1.18647 21.9422L0.486816 82.3146C1.27943 82.4837 1.4311 83.1403 1.56809 83.7652C1.64638 84.1229 1.68796 84.4831 1.93749 84.7551C2.23594 85.0835 2.54663 85.1325 2.7619 84.6498C2.7619 84.6449 2.7619 84.6424 2.7619 84.6375C3.42486 84.5861 3.64747 85.2403 4.09026 85.5442C4.14163 85.4829 4.19056 85.4216 4.24193 85.3604C4.47678 85.2428 4.68472 85.2942 4.92201 85.3947C5.23514 85.5319 5.40394 85.4045 5.3966 85.0884C5.55072 85.0124 5.70239 84.9487 5.85651 84.9071C6.06934 84.9218 6.25526 85.0565 6.45341 85.2942C6.70538 85.5956 6.87174 86.1592 7.47843 85.9558C7.6619 85.7647 7.83804 85.5662 8.0582 85.4118C8.6282 85.2477 8.67713 84.4586 9.20064 84.3459C10.0397 84.1646 10.8128 83.7971 11.6347 83.601C12.2243 83.4589 12.7013 83.2482 13.0243 82.7336C13.0243 82.7115 13.0316 82.6895 13.034 82.6674C13.379 82.6454 13.7582 82.0622 14.0591 82.6797C14.4823 83.552 15.4119 83.9122 15.9696 84.6424C16.0944 84.8066 16.3341 84.8238 16.5445 84.7355C16.9531 84.4292 17.2833 84.0396 17.616 83.6574C17.6772 83.6182 17.7383 83.579 17.7995 83.5398C17.8142 83.4858 17.8288 83.4319 17.846 83.378C18.2398 82.8561 18.7707 83.378 19.2086 83.1967C19.2404 83.1428 19.2771 83.0987 19.3138 83.057C19.3651 83.0889 19.419 83.0815 19.4777 83.0399C19.5315 83.035 19.5853 83.0301 19.6391 83.0252C20.5736 83.035 20.965 83.7897 21.4714 84.3802C21.7038 84.6498 21.8995 84.9977 22.3374 84.6988C22.45 84.6914 22.5625 84.6841 22.6726 84.6767C22.6799 84.6277 22.6873 84.5787 22.6921 84.5272C22.7484 84.488 22.768 84.4488 22.7582 84.4121C22.9735 84.3459 23.1839 84.2675 23.4065 84.2332C23.6927 84.0323 23.9911 83.8412 23.9936 83.476C24.1673 83.4001 24.2529 83.2506 24.3116 83.0766L24.3043 83.0693C24.4119 82.9884 24.4266 82.8978 24.3728 82.7997C24.9354 82.687 25.0724 82.2141 25.2363 81.7657C25.207 81.6285 25.2314 81.4937 25.2608 81.3614C25.6962 81.0404 26.1439 80.7782 26.7873 81.1555C26.9439 81.2486 27.1273 81.1506 27.2717 80.9963C27.2986 81.0012 27.323 81.0061 27.35 81.011C27.4331 80.9913 27.5114 80.9619 27.5848 80.9154C27.6876 80.7978 27.7927 80.7243 27.8979 80.6802C28.189 80.6655 28.4679 80.7586 28.7542 80.9742C29.1138 81.2437 29.4538 81.2511 29.652 80.9056C29.7107 80.8541 29.7669 80.7904 29.8207 80.7047C29.9357 80.516 30.1486 80.44 30.2904 80.2807C30.5742 79.9892 30.814 79.673 30.8874 79.2565C30.8922 79.1487 30.902 79.0409 30.9094 78.933C31.1589 78.9183 31.3595 79.1952 31.5748 79.3717C31.9173 79.4672 31.8561 80.2342 32.453 79.9009C32.8493 79.9867 33.4389 79.7417 33.6199 80.1117C34.0798 81.0526 34.684 80.7904 35.3519 80.4939L35.3397 80.516C35.4033 80.5135 35.4644 80.5111 35.528 80.5086C35.8338 80.7659 36.1127 80.6826 36.394 80.4572C36.7121 80.1999 37.0374 79.9524 37.3603 79.7025C37.534 79.7319 37.7077 79.7637 37.8814 79.7931C38.4734 79.6804 38.9994 79.1658 39.6648 79.4991C40.3228 80.0357 40.7999 79.8446 41.1473 79.1315C41.3943 79.1487 41.568 79.2736 41.6879 79.4868C41.7001 79.8201 41.8958 79.9867 42.2041 80.048C42.2628 80.1068 42.3215 80.1656 42.3802 80.2244C41.9986 81.0673 42.9135 81.4177 43.0725 82.0548C43.2633 82.268 43.4468 82.1406 43.6303 82.0426C43.9214 82.1112 43.985 82.3317 43.9899 82.589C43.9336 82.6968 43.8774 82.8022 43.8186 82.91C44.0437 83.0325 44.1098 83.3584 44.4473 83.3535C45.4112 83.3388 46.4142 83.5422 47.2362 82.8071C47.2411 82.6919 47.2435 82.5743 47.2484 82.4591C47.4196 82.3146 47.5811 82.1627 47.6031 81.9201C47.652 81.9078 47.6985 81.8956 47.745 81.8833C48.4544 81.8931 48.8997 82.3513 49.3351 82.8242C49.455 83.1428 49.6923 83.2678 50.025 83.2825C51.368 83.3413 52.6352 82.986 53.9 82.6037C53.9024 82.6037 53.9073 82.6037 53.9097 82.6012C53.9097 82.638 53.9073 82.6748 53.9097 82.7091C54.3599 82.8708 54.8247 83.1526 55.1672 82.5351C55.2357 82.4224 55.3042 82.3072 55.3702 82.1945C55.4436 82.1283 55.5194 82.0622 55.5928 81.996C55.5904 81.9813 55.583 81.969 55.5806 81.9568C56.5347 81.4961 57.5328 81.3001 58.5945 81.4961C58.6825 81.9225 58.8978 82.0916 59.3137 81.8465C59.5167 81.6995 59.5436 81.3638 59.8592 81.3369C59.9864 81.6407 60.1112 81.6873 60.2335 81.3344C60.4977 81.0698 60.806 81.0575 61.1387 81.1678C61.1778 81.1555 61.2194 81.1457 61.2585 81.1335C61.3344 81.0673 61.4102 81.0012 61.4787 80.9301C61.5399 80.8884 61.601 80.8468 61.6622 80.8027C61.6768 80.7488 61.6964 80.6973 61.7209 80.6459C61.7429 80.6091 61.7502 80.5748 61.7453 80.5429C61.7576 80.5135 61.7698 80.4841 61.7796 80.4523C61.7869 80.4302 61.7943 80.4082 61.8016 80.3837C62.1588 79.8912 62.6211 79.5162 63.1398 79.2001C63.2107 79.0776 63.2816 78.9551 63.3526 78.8301C63.4064 78.7223 63.4578 78.612 63.5214 78.5091C63.6143 78.3793 63.7171 78.2812 63.8247 78.2077C64.2748 77.9848 64.7005 77.948 65.0406 78.6929C65.1384 78.9085 65.3145 78.9747 65.5567 78.862C65.9579 78.6757 66.3689 78.514 66.775 78.3425C67.0196 78.3253 67.2104 78.2298 67.3132 77.9921L67.3059 77.9823C67.9052 77.4408 68.5021 77.4383 69.0966 77.9921C69.5663 77.7079 69.9161 77.9382 70.3002 78.22C71.0218 78.7468 71.768 79.3055 72.6951 78.5973C72.9153 79.183 73.0988 79.8348 73.9305 79.3472C74.3929 79.5702 74.9066 79.575 75.3934 79.6877C75.6185 79.8813 75.7261 80.2293 76.1004 80.2293C76.1542 80.1705 76.2105 80.1092 76.2643 80.0504C76.3377 79.7564 76.4111 79.4623 76.482 79.1683C76.7658 79.3741 77.0765 79.553 77.326 79.7956C78.1602 80.6018 78.6862 80.4915 79.1754 79.3741C79.2464 79.2001 79.3173 79.0262 79.3907 78.8522C79.5791 78.715 79.6843 78.5238 79.7356 78.3009C79.787 78.3009 79.8384 78.2935 79.8873 78.2837C79.9583 78.2445 80.0219 78.1955 80.0806 78.1391C80.0806 78.1367 80.0855 78.1318 80.0855 78.1293C80.2983 78.1465 80.4891 78.2298 80.6873 78.3376C81.1814 78.6047 81.6658 78.5851 82.0792 78.1489C82.1453 77.975 82.2113 77.801 82.2798 77.627C82.2798 77.4408 82.2749 77.2545 82.2725 77.0683C82.6884 77.0732 83.1042 77.083 83.5201 77.0904C83.7378 77.3158 83.5324 78.1024 84.2589 77.6515C84.4302 77.5755 84.599 77.502 84.7702 77.4261C84.6944 76.9972 85.1151 76.7571 85.1689 76.3773C85.2277 76.316 85.2864 76.2548 85.3426 76.1935C86.0056 75.7598 86.8251 76.3013 87.4954 75.8652C87.5003 75.8627 87.6348 76.0342 87.6838 76.1347C87.789 76.3479 87.9235 76.6959 88.1339 76.588C88.403 76.4508 88.8678 76.3675 88.8018 75.8725C88.8482 75.8088 88.8947 75.7426 88.9412 75.6789C89.7754 75.0712 90.7515 75.0002 91.73 74.9242C92.1165 74.8948 92.3636 75.0712 92.4615 75.429C92.6621 76.1715 93.1293 76.4042 93.7727 76.316C93.7996 76.3552 93.8265 76.392 93.8559 76.4263C93.9219 76.4802 93.9953 76.5243 94.076 76.5513C94.1152 76.5635 94.1543 76.5758 94.191 76.5905C94.2008 76.6738 94.2179 76.7547 94.2571 76.8331C94.3305 76.9728 94.4087 77.1075 94.4993 77.2325C94.5849 77.4089 94.717 77.5559 94.9102 77.6662C94.9567 77.7005 95.0032 77.7348 95.0546 77.7642C95.2821 77.9063 95.4533 78.1391 95.7298 78.2028C95.5292 78.5018 95.7077 78.8007 95.8056 79.0997C96.0233 79.3423 96.2557 79.5726 96.2215 79.9475C96.2019 80.1607 96.2337 80.4155 96.5322 80.3494C96.8061 80.2906 96.8355 80.097 96.7523 79.8862C96.7963 79.8838 96.8404 79.8764 96.8844 79.8617C97.1315 79.7221 97.293 79.4574 97.5865 79.3864C97.726 79.3104 97.8678 79.2393 98.0097 79.1683C98.159 79.0801 98.296 78.9674 98.4281 78.8522C98.7118 78.7444 98.9516 78.5263 99.1986 78.3303C99.3136 78.2935 99.4384 78.2714 99.5778 78.2763C100.96 77.7716 102.161 77.0854 102.394 75.4363C102.403 75.2942 102.406 75.1545 102.364 75.0296C102.46 74.9585 102.54 74.8728 102.597 74.7625C102.604 74.7527 102.609 74.7404 102.614 74.7306C103.245 74.9757 103.932 74.8458 104.541 74.3557C104.568 74.4023 104.598 74.4439 104.639 74.4807C105.07 74.8041 105.491 74.7674 105.973 74.5518C106.584 74.2749 107.117 73.7824 107.851 73.8265C107.944 73.8167 108.03 73.7873 108.111 73.7383C108.392 73.4785 108.737 73.329 109.065 73.1453C109.309 73.008 109.542 72.8463 109.498 72.5768C109.566 72.5572 109.632 72.5302 109.696 72.4959C109.904 72.2533 110.351 72.1333 110.151 71.6824C110.449 71.8319 110.748 71.7044 110.997 71.5721C111.518 71.2903 111.858 71.4226 112.34 71.7534C112.793 72.0671 113.214 72.5743 113.867 72.5376C113.948 72.5082 114.021 72.4714 114.085 72.415C114.251 72.2533 114.415 72.0842 114.681 72.1528C115.232 72.4052 115.574 72.8929 115.958 73.3266C116.235 73.6402 116.48 73.7285 116.731 73.4908C116.658 74.0102 117.013 74.2406 117.473 74.3998C117.416 74.4342 117.363 74.4758 117.324 74.5346C117.196 75.255 117.852 75.1448 118.202 75.3579C118.302 75.3849 118.397 75.4143 118.49 75.4511C118.622 75.5442 118.759 75.6226 118.923 75.6348C119.019 76.1151 119.224 76.5047 119.797 76.5831C119.995 76.5635 120.095 76.4214 120.191 76.2768C120.315 76.3896 120.457 76.4778 120.614 76.5562C121.064 76.7767 121.287 76.6444 121.309 76.1494C121.304 76.1421 121.296 76.1347 121.291 76.1274C121.294 76.1274 121.299 76.1249 121.301 76.1225C121.468 76.2376 121.629 76.2425 121.786 76.0906C121.786 76.0857 121.786 76.0832 121.786 76.0783C122.057 76.2278 122.268 76.1764 122.405 75.8921C122.972 75.9289 123.63 75.8211 124.056 76.0882C124.577 76.4141 124.929 76.3283 125.191 75.9852C125.643 75.3922 126.324 75.1521 126.864 74.7086C126.867 74.7012 126.869 74.6939 126.874 74.689C126.894 74.7454 126.913 74.8017 126.938 74.8654C127.402 75.0271 127.872 74.9904 128.342 74.8875C128.709 74.8066 128.882 74.6228 128.728 74.2847C128.767 74.3067 128.811 74.3214 128.855 74.3337C128.944 74.341 129.029 74.3312 129.112 74.3018C129.306 74.194 129.377 73.998 129.492 73.8265C129.949 73.1477 130.265 72.3489 131.008 71.8956C131.065 71.8294 131.113 71.7608 131.155 71.6824C131.216 71.5697 131.334 71.4864 131.444 71.3981C131.52 71.3614 131.581 71.3099 131.622 71.2339C131.666 71.18 131.698 71.1188 131.71 71.0453C131.96 70.565 132.417 70.6263 132.86 70.5993C132.921 70.5381 132.946 70.4768 132.938 70.4155C132.968 70.3984 132.997 70.3788 133.026 70.3567C133.151 70.2195 133.186 70.0725 133.112 69.9108C133.464 70.0161 133.812 70.0896 134.02 70.5111C134.135 70.7463 134.44 70.8982 134.732 70.7145C134.776 70.761 134.82 70.8076 134.864 70.8542C134.998 70.886 135.138 70.8909 135.277 70.886C135.28 70.886 135.282 70.886 135.284 70.886C135.519 71.3173 136.043 71.3638 136.442 71.5746C136.767 71.5525 136.965 71.3589 137.109 71.0894C137.131 71.0061 137.136 70.9252 137.117 70.8517C137.127 70.8395 137.136 70.8297 137.146 70.8174C137.158 70.7978 137.173 70.7806 137.188 70.761C137.853 70.7929 138.269 70.3592 138.695 69.9451C138.753 69.629 138.978 69.6584 139.189 69.6559C139.189 69.6608 139.191 69.6657 139.194 69.6706C139.225 69.7392 139.26 69.8005 139.294 69.8617C139.211 70.6336 139.507 70.9301 140.299 70.9546C140.97 70.9767 141.493 70.6753 142.002 70.3028C142.063 70.2244 142.107 70.1386 142.132 70.0431C142.134 70.0186 142.139 69.999 142.144 69.9769C142.455 69.8862 142.687 69.5628 143.037 69.602C143.805 69.6853 144.17 69.2148 144.441 68.6047C144.48 68.5214 144.502 68.4332 144.505 68.3401C144.505 68.2029 144.495 68.0705 144.424 67.948C144.409 67.9284 144.39 67.9161 144.375 67.9014C144.375 67.9014 144.375 67.9014 144.377 67.9014C144.874 68.0632 145.439 68.4258 145.557 67.453C145.549 67.4089 145.542 67.3673 145.535 67.3232C145.569 67.2987 145.603 67.2766 145.635 67.2521C145.772 67.2252 145.911 67.2104 146.058 67.2104C146.144 67.1908 146.222 67.1541 146.29 67.1051C146.489 66.8551 146.934 66.762 146.829 66.3234C147.164 66.7522 147.78 66.6028 148.177 66.9017C148.972 67.4408 149.791 67.6246 150.674 67.0953C150.968 66.9189 151.291 66.8845 151.623 66.985C151.863 67.11 152.059 67.4089 152.362 67.2717C152.604 67.7275 152.842 67.4187 153.03 67.23C153.253 67.0071 153.426 66.7375 153.622 66.4876C153.669 66.2156 153.83 66.0857 154.023 65.9902C154.177 66.0098 154.339 65.9902 154.5 65.9534C154.826 65.7525 154.902 65.4707 154.769 65.1227C154.906 65.2134 155.07 65.2109 155.168 65.1105C155.611 64.6425 156.227 64.6228 156.773 64.4244C157.074 64.2038 157.507 64.3925 157.798 64.1426C157.83 64.3999 157.991 64.5052 158.27 64.4758C158.285 64.466 158.297 64.4562 158.312 64.4489C158.551 64.4685 158.637 64.2406 158.747 64.0593C158.882 64.096 159.016 64.1279 159.136 64.1965C159.85 64.5885 160.513 64.5885 161.201 64.074C161.644 63.7432 161.976 63.3585 162.214 62.8733C162.219 62.8635 162.219 62.8537 162.223 62.8439C162.255 62.8488 162.289 62.8316 162.324 62.7875C162.727 62.4714 162.666 61.4398 163.606 61.9519C163.606 61.9544 163.601 61.9568 163.598 61.9593C164.141 62.7949 164.902 62.4371 165.536 62.2117C165.991 62.05 166.206 62.0794 166.284 62.3244C166.23 62.5817 166.223 62.8414 166.253 63.1085C166.275 63.2629 166.341 63.3952 166.463 63.4932C166.46 63.4957 166.456 63.5006 166.453 63.503C166.434 63.6403 166.48 63.7554 166.561 63.8608C166.803 64.2553 167.177 64.3141 167.591 64.2724C167.662 64.2357 167.706 64.1793 167.725 64.1083C168.386 64.1646 169.056 64.4317 169.69 63.9931C169.954 63.8093 170.191 63.9367 170.428 64.0446C170.854 64.1475 171.214 64.1548 171.214 63.6697C171.221 63.6697 171.231 63.6697 171.238 63.6672C171.309 63.6206 171.37 63.5618 171.417 63.4908C171.451 63.4124 171.463 63.3291 171.453 63.2433C171.449 63.2065 171.431 63.1698 171.414 63.1355C171.6 63.0228 171.801 62.9688 172.009 62.9321C172.371 62.9517 172.735 62.7753 173.097 62.8414C173.178 62.8341 173.256 62.8218 173.335 62.7973C173.44 62.7998 173.545 62.7875 173.65 62.7679C174.005 62.9149 174.36 63.0718 174.763 62.7777C174.876 62.6944 174.993 62.763 175.064 62.8635C175.492 63.4712 175.478 63.1355 175.492 62.8635C175.686 62.8929 175.823 63.0277 175.979 63.1208C176.043 63.1477 176.109 63.1649 176.177 63.1747C176.503 63.5055 176.811 62.8096 177.136 62.9713C177.645 63.0522 178.032 62.9713 178.051 62.4053C178.587 62.986 179.279 63.1085 180.016 62.7557C180.038 62.7777 180.06 62.7998 180.084 62.8218C180.157 62.8684 180.236 62.9027 180.319 62.9272C180.321 62.9419 180.324 62.9566 180.329 62.9713C180.397 63.1085 180.48 63.2555 180.625 63.2972C182.063 63.7236 183.489 64.2773 185.033 63.8044C185.897 63.7089 186.278 64.1818 186.4 64.9634C186.489 65.3065 186.591 65.6447 186.748 65.9657C187.279 66.4557 187.822 66.4508 188.541 65.9461C188.967 66.49 189.649 66.3014 190.205 66.4631C190.461 66.5366 190.735 66.4606 190.782 66.8551C190.848 67.4065 191.215 67.4726 191.704 67.4138C192.788 67.284 193.857 66.8919 194.972 67.2447C195.21 67.3183 195.435 67.1614 195.628 67.0095C195.934 66.6395 196.347 66.3259 196.301 65.7672C196.558 65.8382 196.734 65.7819 196.77 65.505C196.792 65.5197 196.817 65.5295 196.839 65.5466C197.208 65.5221 197.563 65.456 197.835 65.1693C197.984 64.863 198.094 64.5395 198.41 64.3337C198.515 64.2651 198.627 64.172 198.652 64.0544C198.72 64.025 198.786 63.9906 198.85 63.949C198.913 63.8951 198.972 63.8363 199.024 63.7677C199.635 63.0914 200.46 63.2016 201.242 63.1624C201.323 63.1502 201.399 63.1281 201.475 63.0938C201.475 63.0938 201.477 63.0938 201.48 63.0938C201.675 63.2506 201.932 63.2776 202.174 63.3413C202.365 63.3487 202.527 63.258 202.695 63.1894C203.136 62.986 203.657 63.0203 204.073 62.7483C204.075 62.7508 204.078 62.7532 204.083 62.7557C204.083 62.7557 204.083 62.7557 204.085 62.7581C203.765 63.3658 203.87 63.4981 204.582 63.5447C204.704 63.4859 204.824 63.4271 204.946 63.3756C205.308 63.16 205.778 63.3511 206.13 63.0963C206.145 63.1012 206.157 63.1036 206.172 63.1085C206.196 63.2751 206.319 63.383 206.468 63.3805C207.221 63.3609 207.962 63.5079 208.711 63.53C208.716 63.5373 208.718 63.5422 208.723 63.5496C208.775 63.6084 208.828 63.6648 208.885 63.7162C209.164 63.9024 209.433 64.0299 209.604 63.6157C209.888 63.7554 210.159 63.9882 210.502 63.7505C210.8 63.8706 211.099 63.9882 211.397 64.1083C211.463 64.123 211.475 64.1989 211.485 64.2798C211.485 64.3411 211.485 64.4023 211.478 64.466C211.473 64.6008 211.461 64.738 211.444 64.8728C211.333 65.282 211.581 65.5687 211.788 65.8676C211.855 66.0122 211.925 66.1519 212.001 66.2818C211.999 66.3577 211.982 66.4312 211.93 66.4949C211.945 66.5439 211.957 66.5905 211.967 66.642C212.261 66.8429 212.586 66.9924 212.787 67.3183C213.149 67.9063 213.467 67.823 213.724 67.2276C213.775 67.2202 213.829 67.2104 213.88 67.1957C213.75 66.958 213.772 66.7228 213.895 66.4876C213.963 66.4361 214.029 66.3822 214.098 66.3283C214.546 65.8921 214.744 66.1666 214.873 66.6077C214.912 66.7424 214.851 66.9066 214.954 67.0242C215.059 67.1467 215.186 67.1859 215.311 67.0389C215.509 66.9311 215.708 66.8257 215.908 66.7179C216.052 66.1788 216.525 66.0049 216.955 65.7868C217.087 65.4682 217.408 65.4021 217.667 65.2575C217.608 64.7503 217.603 64.3043 218.105 63.9392C218.423 63.7089 218.602 63.2898 218.844 62.9541C219.431 62.9468 220.018 62.9394 220.605 62.9321C220.674 62.7704 220.745 62.6062 220.813 62.4445C221.307 62.3979 221.767 61.8907 222.281 62.099C222.295 62.1676 222.318 62.2386 222.347 62.3072C222.413 62.4224 222.499 62.5253 222.584 62.6233C222.618 62.665 222.631 62.714 222.616 62.7655C222.836 62.9786 223.066 63.1183 223.35 62.8635C223.744 62.7557 223.834 63.0203 223.957 63.3094C224.135 63.7236 224.399 64.0715 224.923 64.0642L224.95 64.0789C225.268 64.2798 225.598 64.3999 225.95 64.3876C225.994 64.4366 226.043 64.4881 226.092 64.5395C226.569 64.6498 226.899 65.0394 227.352 65.1938C227.418 65.2256 227.484 65.2575 227.55 65.2869C227.565 65.3212 227.58 65.3531 227.594 65.3874C227.753 65.5712 227.763 65.9755 228.132 65.8603C228.595 65.7182 228.844 65.3506 228.945 64.885C229.04 64.8066 229.135 64.7282 229.231 64.6498C229.478 64.5984 229.727 64.5444 229.975 64.4905C230.168 64.4832 230.373 64.5273 230.537 64.3754C231.019 64.2136 231.251 63.7652 231.599 63.4467C232.374 63.5275 233.079 63.8191 233.757 64.1867C234.053 63.8044 234.623 64.4219 234.874 63.8779C234.926 63.8706 234.977 63.8608 235.029 63.8412C235.151 63.6599 235.271 63.481 235.393 63.2996C235.704 63.182 236.105 63.0203 236.225 63.4369C236.386 63.9858 236.844 64.0029 237.216 64.194C237.269 64.2014 237.326 64.2014 237.38 64.194C237.438 64.2602 237.495 64.3239 237.553 64.3901C237.869 64.4587 238.133 64.3974 238.29 64.0813C238.571 64.0348 238.877 64.1009 239.041 63.7309C239.339 63.0571 239.85 63.0154 240.442 63.3535C240.797 63.4026 241.149 63.4516 241.504 63.5006C241.575 63.4026 241.644 63.3045 241.714 63.2065C241.839 63.0914 241.966 62.9786 242.091 62.8635C242.426 63.0007 242.568 62.6013 242.823 62.5106C242.876 62.4837 242.93 62.4592 242.984 62.4322C243.106 62.3808 243.229 62.3269 243.351 62.2754C243.605 62.4371 243.789 62.3391 243.965 62.1308C244.105 61.9666 244.166 61.6113 244.474 61.7584C244.721 61.876 244.56 62.2019 244.643 62.4077C244.885 63.008 244.728 63.802 245.465 64.172C245.286 64.6719 246.257 64.8238 245.832 65.3972C245.888 65.7182 245.986 65.9804 246.397 65.8113C246.556 65.8113 246.712 65.8113 246.869 65.8088C246.906 66.1323 247.082 66.3259 247.405 66.3798C247.463 66.5733 247.551 66.7326 247.794 66.7106C248.525 66.6395 249.095 67.1418 249.773 67.2594C250.115 67.4481 250.46 67.6393 250.803 67.8279C250.834 67.9309 250.864 68.0313 250.896 68.1342C251.24 68.4405 251.483 68.8081 251.58 69.2639C251.693 69.7123 252.075 69.8519 252.437 70.0137C252.535 70.2563 252.672 70.2538 252.838 70.0749C253.097 70.021 253.234 70.1729 253.339 70.3763C253.295 70.4988 253.254 70.6214 253.21 70.7439C253.251 70.8051 253.295 70.8664 253.337 70.9277C253.667 70.8835 253.772 71.1678 253.966 71.3369C254.188 71.5329 254.372 71.898 254.778 71.6628C254.829 71.675 254.883 71.6799 254.934 71.6775C255.394 72.3734 254.81 72.4567 254.298 72.5621C254.607 72.8537 254.893 72.6307 255.137 72.7262C255.773 72.8145 255.57 73.4687 255.854 73.7946C256.025 73.8093 256.197 73.8215 256.368 73.8363C256.559 74.0911 256.28 74.6351 256.865 74.6498C257.109 75.1399 257.562 75.1546 258.019 75.1595C258.078 75.1497 258.137 75.1472 258.195 75.1545C258.667 74.4537 258.959 73.6329 259.575 73.0276C259.651 72.8488 259.712 72.6552 259.959 72.6478C260.101 72.8635 260.311 72.8144 260.514 72.7948C260.527 72.7336 260.539 72.6699 260.549 72.6086C261.207 72.5523 261.131 71.7755 261.601 71.5305C261.686 71.3001 261.75 71.0698 261.662 70.8248C261.708 70.7243 261.752 70.6238 261.799 70.5234C261.865 70.5062 261.931 70.4866 261.999 70.4694C262.464 69.972 263.078 69.7049 263.656 69.3815C264.641 69.5236 264.945 68.443 265.728 68.22C265.64 68.1416 265.551 68.0632 265.466 67.9823C265.583 67.7495 265.701 67.5192 265.818 67.2864C265.882 67.2742 265.948 67.2619 266.011 67.2496C266.002 67.1859 265.992 67.1222 265.984 67.0585C266.378 67.0438 266.601 66.7816 266.799 66.4876C266.963 66.2622 267.124 66.0367 267.288 65.8113C267.411 65.8039 267.533 65.7966 267.655 65.7892C267.663 65.5858 267.67 65.3825 267.675 65.1791C267.951 65.2501 268.174 65.0909 268.404 64.9684C268.455 64.9684 268.507 64.9684 268.558 64.9586C268.925 64.8605 269.27 64.7258 269.529 64.4317C269.529 64.4244 269.529 64.4195 269.529 64.4121C269.935 64.4611 270.31 64.5812 270.552 64.9855C270.936 64.9904 271.362 65.0492 271.232 64.4268C271.359 64.4244 271.486 64.4219 271.613 64.417C271.741 64.3117 271.868 64.2063 271.995 64.0985L272 64.123Z" fill="#D0C834"/>
</svg>
