<svg width="1440" height="217" viewBox="0 0 1440 217" fill="none" xmlns="http://www.w3.org/2000/svg">
<path d="M-174.789 374.171L-162.581 68.9856C-162.487 68.4784 -162.391 67.9551 -162.295 67.4318C-161.915 67.4987 -161.535 67.5656 -161.172 67.647C-159.074 66.1617 -156.976 64.6764 -154.877 63.191L-152.379 63.322C-152.904 59.1955 -150.143 59.8018 -147.638 60.0301C-146.265 62.7991 -143.892 63.7731 -141.255 64.3197L-141.242 64.1759C-139.39 62.394 -137.073 61.6864 -134.635 61.2476C-134.294 61.2141 -133.958 61.2287 -133.623 61.2592C-132.064 60.5791 -130.53 59.6388 -128.768 60.2508C-128.615 58.9267 -128.462 57.6025 -128.309 56.2784C-127.506 56.2872 -126.703 56.312 -125.916 56.3193C-124.728 54.9444 -123.555 53.552 -122.367 52.1611C-121.641 51.2599 -120.886 50.3937 -119.978 49.7833C-119.069 49.1729 -118.038 48.7994 -116.755 48.8518C-116.781 48.4303 -116.807 48.0087 -116.835 47.6032C-116.395 47.5466 -115.973 47.5045 -115.551 47.4624C-114.662 46.0118 -113.774 44.5614 -112.885 43.1108C-113.413 42.5468 -113.941 41.9828 -114.469 41.4188C-109.241 40.3799 -106.713 33.4687 -100.344 34.9197C-96.4121 33.0856 -92.2449 31.676 -88.9621 28.6704C-88.5196 28.5818 -88.0769 28.4931 -87.6344 28.4045C-87.2874 27.7751 -86.9247 27.1472 -86.5777 26.5179C-87.0239 24.8812 -86.4863 23.3987 -85.8227 21.9438C-82.6421 20.5894 -82.7242 15.4876 -78.3922 15.4472C-78.2919 15.0533 -78.1742 14.6449 -78.0739 14.251C-76.7364 14.2278 -75.3335 14.0171 -74.5189 15.4939C-72.9158 15.5594 -72.4175 14.3313 -71.815 13.1933C-67.4772 9.55835 -65.1523 4.35351 -61.7006 0.0252243C-61.3206 0.0920983 -60.9362 0.110984 -60.5474 0.0819118C-59.0633 0.217177 -57.5648 0.369909 -56.2927 0.888885C-55.0061 1.4253 -53.9299 2.32945 -53.2617 4.00247C-49.4696 4.41258 -51.566 7.81657 -50.4554 9.57828L-47.126 10.1236C-45.4353 12.4057 -47.1011 16.5581 -43.0001 17.4639C-41.4423 18.2023 -39.4571 16.9001 -37.6024 18.9714C-40.9887 19.4044 -44.855 19.6324 -42.2021 24.4203C-41.8654 24.4349 -41.5174 24.4988 -41.1881 24.5933C-38.4296 23.281 -37.4007 25.7607 -36.0636 27.1562C-34.8876 28.3757 -34.3356 30.2638 -32.1696 30.1549C-31.9187 30.5808 -31.6664 30.9907 -31.4317 31.4151C-31.7757 32.1898 -32.1213 32.9805 -32.4494 33.7567C-31.8667 35.1317 -31.0637 36.2044 -29.3371 35.9749C-28.7929 35.4764 -28.3023 35.2147 -27.8874 35.2526C-27.4246 35.2947 -27.0289 35.7177 -26.755 36.5971C-24.4692 37.8211 -22.0439 38.9288 -21.5446 41.9245C-21.1454 44.9594 -19.7666 47.4871 -17.664 49.6617C-17.5176 50.3521 -17.37 51.0265 -17.2238 51.7169C-15.083 53.1211 -12.9438 54.5412 -10.8045 55.9614C-6.43375 57.0852 -2.96198 60.6581 1.84154 60.564L2.16065 60.593C3.50116 60.7152 3.9389 61.7385 4.21545 62.9405C6.29135 63.4683 7.34254 64.8216 7.42152 66.9567C8.44426 67.0338 9.48292 67.1123 10.5057 67.1894L10.5217 67.1909C13.2901 66.2986 13.7885 68.0691 13.9821 70.1825C11.1445 73.4221 16.1867 74.9457 15.9433 77.6157C15.9215 77.8555 15.8663 78.1084 15.7457 78.3715C20.3652 81.1785 18.9197 86.2699 20.1918 90.3194C20.6279 91.7133 19.397 93.7452 20.9547 94.661C22.8955 95.789 23.4751 93.4882 24.4678 92.4825C25.301 91.6395 26.1352 91.1352 27.0449 91.2181C27.5236 91.2617 28.0196 91.4682 28.5621 91.8723C29.392 91.5932 30.2075 91.2967 31.0376 91.0177C31.4047 90.8738 31.7717 90.7301 32.1388 90.5862C33.8393 90.1124 34.9705 87.5877 37.0925 88.6678C37.9603 87.9731 38.8427 87.2959 39.7249 86.6186C40.2315 86.0038 40.7528 85.4064 41.2578 84.8076C43.5455 85.3063 45.833 85.8049 48.1033 86.3182C51.8002 88.8314 55.1632 88.8317 57.4659 84.576C58.7231 82.2563 60.6815 82.8378 62.5458 82.6853C63.739 80.7144 65.4858 80.4384 67.5051 81.0577L68.5404 82.4096C68.8958 82.3936 69.2469 82.4256 69.6095 82.507C71.9389 83.9607 74.9173 84.2966 75.6774 87.9609C76.2609 90.7385 78.9596 89.9044 81.0432 89.2882C81.9329 88.1764 82.8228 87.0645 83.6966 85.9512C84.0434 85.8538 84.3698 85.803 84.7253 85.787C86.6461 82.3671 90.0637 86.7089 92.1929 84.3558C94.3033 85.7411 96.473 87.0028 98.7444 88.032C101.016 89.0612 103.389 89.8579 105.89 90.3115L105.906 90.313C107.119 89.3596 108.158 88.1968 109.299 87.1562C110.44 86.1155 111.697 85.2145 113.31 84.8134C114.456 83.8861 115.771 84.2961 117.053 84.3485C118.699 84.1277 120.344 83.9069 121.988 83.702C122.658 83.2311 123.327 82.7763 123.981 82.3039C124.898 79.3084 126.714 77.0395 129.801 76.3537C132.281 75.8059 132.122 78.4353 133.066 79.7304C133.157 79.9644 133.234 80.1809 133.309 80.4135C133.723 80.6446 134.136 80.8757 134.564 81.1243C137.426 82.3847 139.385 85.0781 142.45 86.0506C142.754 86.4169 143.027 86.7803 143.301 87.1277C143.428 87.1393 143.558 87.1351 143.685 87.1467C145.84 87.3431 147.798 88.2792 149.666 89.6747L149.834 89.7706C153.258 89.9859 154.808 92.4003 155.76 95.1954C156.417 97.1577 156.868 98.9236 159.487 98.4369C161.475 96.9254 162.909 97.9588 164.236 99.4662C164.11 99.7932 164.176 100.122 164.359 100.412C164.875 101.104 165.374 101.811 165.752 102.603C165.903 103.068 166.004 103.545 166.075 104.003C166.599 104.26 167.133 104.405 167.659 104.453C170.388 104.702 173.111 102.548 175.85 102.508C176.378 101.476 176.923 100.445 177.466 99.4307C181.304 99.6838 185.143 99.937 188.982 100.19C190.731 98.1248 192.114 95.4781 194.311 94.1468C197.787 92.0293 197.974 89.0962 197.859 85.7648C199.639 84.9436 201.756 84.6691 202.775 82.6663C204.247 82.0588 205.757 81.5517 207.07 80.7364C208.382 79.937 209.494 78.8614 210.102 77.1275C211.443 76.5403 212.801 75.9387 214.16 75.3371C215.045 74.4505 215.851 74.7819 216.482 75.6294C217.082 76.4579 216.602 77.4942 216.777 78.3968C217.392 81.3547 218.555 83.2501 221.707 80.6194C222.17 80.307 222.632 80.0105 223.11 79.6995C224.016 78.2344 224.284 76.7112 223.563 75.0818C223.907 75.0165 224.25 74.967 224.589 74.9496C226.588 71.1982 228.714 70.8277 230.761 74.8511C231.893 77.0822 233.944 78.2365 235.758 79.6915C235.793 80.0171 235.844 80.3441 235.91 80.6726C235.537 81.0578 235.398 81.5287 235.336 82.0228C235.77 82.9168 236.167 83.8557 236.528 84.8398C237.724 86.8994 239.2 88.888 238.253 91.51C238.077 92.3806 237.917 93.2527 237.82 94.1465C237.735 94.5419 237.699 94.9416 237.678 95.3428C237.71 95.8777 237.745 96.3806 238.167 96.5158C240.061 97.4461 241.94 98.3751 243.834 99.3054C246.195 97.9407 247.831 99.589 249.616 100.655C250.28 99.3769 251.027 98.9454 251.825 99.0181C252.623 99.0909 253.502 99.6867 254.372 100.379C254.724 100.749 255.043 101.133 255.343 101.547C255.372 101.582 255.4 101.633 255.412 101.682C260.302 102.225 265.055 103.561 269.988 103.817C270.964 103.874 271.716 104.636 271.776 105.737C271.869 105.778 271.962 105.819 272.039 105.858C274.474 104.387 277.444 105.867 279.921 104.642C280.749 104.379 281.569 104.034 282.386 103.722C287.023 104.403 287.63 105.328 285.225 109.123C285.225 109.123 285.268 109.176 285.281 109.209C288.144 107.632 291.526 108.134 294.506 107.035C295.649 106.672 296.742 106.159 297.984 106.304C299.529 106.832 301.188 107.161 302.39 108.27L302.422 108.273C302.923 108.076 303.432 107.962 303.966 107.93C309.1 108.091 314.418 109.237 318.767 105.135C319.142 104.718 319.544 104.368 320.009 104.04C320.433 103.804 320.884 103.62 321.348 103.468C321.562 102.714 322.352 102.158 323.064 101.771C325.231 100.582 326.126 98.5357 327.251 96.607C329.179 94.8803 331.519 94.6261 333.946 94.6538C334.079 94.7789 334.233 94.8573 334.384 94.9678C334.756 93.18 335.94 92.9011 337.575 93.5015C337.556 89.8241 340.41 87.9886 342.612 85.7228C343.948 84.8289 345.511 83.9234 347.015 84.5442C354.107 87.4152 361.307 85.3954 368.443 85.1269C371.672 85.0021 374.03 85.6199 374.182 89.245C374.281 91.8656 376.117 91.5009 377.75 92.1173C381.296 93.4562 385.849 92.5815 388.353 96.3564C393.319 93.4235 396.869 93.6664 400.075 97.1506C400.923 99.3236 401.425 101.578 401.828 103.872C402.226 109.034 404.469 112.318 410.149 112.143C420.478 109.86 429.509 114.229 438.682 117.742C439.598 118.099 440.054 119.108 440.436 120.03C440.459 120.128 440.467 120.226 440.49 120.325C441.019 120.518 441.509 120.788 441.961 121.136C442.108 121.278 442.239 121.435 442.37 121.592C447.373 119.662 451.82 120.825 455.004 124.904C455.437 121.219 457.993 120.888 461.283 121.688C463.312 122.904 465.692 118.511 467.635 120.848C468.077 120.937 468.498 121.088 468.897 121.302C469.879 122.004 470.71 122.95 471.954 123.241C472.196 121.473 472.284 119.273 474.75 123.463C475.169 124.162 475.895 124.664 476.679 124.187C479.459 122.458 481.699 123.661 483.943 124.817C484.626 124.734 485.32 124.717 486.02 124.797C486.53 124.682 487.049 124.633 487.58 124.633C489.905 125.248 492.375 124.28 494.728 124.591C496.108 124.459 497.45 124.21 498.715 123.568C498.624 123.334 498.532 123.1 498.522 122.857C498.511 122.276 498.623 121.754 498.894 121.247C499.225 120.793 499.659 120.446 500.15 120.184C500.199 120.173 500.247 120.177 500.311 120.183C500.567 117.014 502.894 117.259 505.63 118.137C507.131 118.967 508.605 119.923 510.423 118.864C514.79 116.328 519.023 118.422 523.32 119.12C523.49 118.668 523.811 118.327 524.281 118.112C527.022 118.055 529.43 118.645 530.794 121.333C531.274 122.07 531.507 122.865 531.315 123.734C531.296 123.765 531.279 123.779 531.245 123.792C532.001 124.506 532.353 125.409 532.421 126.43C532.471 128.176 532.283 129.884 531.795 131.532C532.192 133.18 533.564 133.483 536.633 132.65C540.871 131.521 546.035 129.59 549.133 135.321C549.132 135.337 549.1 135.334 549.081 135.365C554.959 139.189 555.094 132.414 557.886 130.557C558.136 130.29 558.353 130.197 558.574 130.249C558.58 130.185 558.617 130.124 558.639 130.061C560.46 127.035 562.83 124.688 565.886 122.758C570.634 119.741 574.977 120.105 579.442 123.026C580.2 123.531 581.06 123.803 581.918 124.106C582.745 122.973 583.407 121.534 584.961 121.788C585.062 121.733 585.132 121.675 585.25 121.621C587.073 121.562 588.08 122.347 588.15 124.046C590.167 122.569 592.915 124.029 594.98 122.734C598.66 121.731 602.697 121.922 605.819 119.095C606.519 118.482 607.589 118.563 608.43 119.22C607.744 116.868 608.389 115.089 610.618 113.938C611.694 113.778 612.759 113.747 613.754 113.95C615.057 113.424 616.189 112.657 616.622 110.907C618.033 109.375 619.312 107.702 620.866 106.36C622.208 105.225 623.908 103.349 625.251 106.438C627.297 105.705 628.431 107.743 629.921 108.701C632.034 109.522 634.164 109.459 636.169 108.465C642.203 105.468 647.461 107.092 652.38 111.022C654.821 113.195 658.936 112.539 660.886 115.505C660.445 112.579 663.391 112.203 664.817 110.689C665.294 110.394 665.826 110.2 666.397 110.123C667.355 110.195 668.275 110.166 669.169 110.07C669.407 109.93 669.645 109.791 669.883 109.651C669.844 109.373 669.822 109.081 669.799 108.805C671.065 102.504 674.556 105.16 677.718 106.48C677.617 106.358 677.512 106.268 677.427 106.147C677.021 105.304 677.02 104.434 677.102 103.538C677.157 102.931 677.353 102.368 677.642 101.846C679.731 97.9904 682.376 95.1039 687.341 96.0563C689.603 96.4881 691.281 94.4969 693.363 94.0741C693.377 93.9142 693.437 93.7906 693.466 93.6482C693.684 93.0232 694.006 92.4884 694.452 92.0132C697.963 89.8506 701.546 88.1458 705.91 88.6402C711.07 89.2234 712.859 91.3049 711.904 96.3121C712.108 96.7177 712.294 97.1537 712.462 97.6043C712.475 97.6377 712.488 97.6711 712.485 97.7031C713.86 97.7962 715.33 98.0914 715.869 96.0609C718.879 93.5786 721.821 90.961 726.131 91.515C726.237 91.4118 726.343 91.3087 726.436 91.172C726.505 91.1139 726.576 91.0398 726.646 90.9816C726.563 90.4743 726.628 89.9482 726.821 89.4177C727.892 87.7259 729.301 86.5646 731.422 86.5968C733.934 88.1638 737.309 88.7454 738.633 91.6873L738.681 91.6917C739.595 91.7266 740.486 91.84 741.362 92.1133L742.141 93.1032C744.152 92.0452 746.058 93.2023 746.685 94.791C747.824 97.6515 750.05 98.3058 752.302 99.1882C751.904 98.0879 752.216 97.1329 753.096 96.3103C753.284 96.1824 753.487 96.0719 753.691 95.9615C753.679 95.5574 753.875 95.1722 754.295 94.8074C757.202 94.8628 760.152 95.5026 762.035 92.4983C762.143 92.0245 762.387 91.6437 762.708 91.3021C763.022 90.8472 763.437 90.5304 763.954 90.3356C764.725 89.8255 765.542 89.3358 765.992 88.6352C766.31 88.1483 766.67 87.7297 767.061 87.314C772.155 84.7475 774.626 79.701 777.969 75.5079C778.806 74.4396 779.37 73.2014 780.696 72.5968C781.256 72.4544 781.822 72.4253 782.393 72.5097C782.675 72.5998 782.952 72.738 783.195 72.8892C782.374 70.6057 783.586 69.491 786.03 69.1496C789.142 68.7239 792.231 68.7312 795.186 70.0323C795.307 70.4625 795.417 70.8435 795.496 71.2214C795.532 71.1763 795.552 71.1296 795.573 71.0831C799.335 68.4598 803.903 67.2481 807.163 63.6116C809.06 61.5115 811.397 61.1119 814.637 63.5191C817.258 65.4829 821.602 65.1372 825.302 65.6679C826.351 63.8773 827.739 63.6492 829.439 64.7713L829.446 64.6913C830.543 63.7757 831.61 63.9052 832.628 64.7396C832.628 64.7396 832.679 64.712 832.696 64.6974C832.668 64.6465 832.625 64.5943 832.597 64.5434C833.003 61.324 834.52 60.5754 837.344 62.2514C838.336 62.8416 839.209 63.5015 839.957 64.2952C840.667 63.3926 841.39 62.5234 842.695 62.4974C846.403 63.3028 847.545 65.9542 847.914 69.1475C848.976 69.3249 849.824 69.902 850.632 70.5721C851.233 70.8686 851.838 71.1172 852.477 71.3367C854.651 72.9051 858.982 72.526 857.77 77.1713C857.48 77.5317 857.119 77.789 856.731 77.9794C859.641 79.2441 861.853 80.9287 861.095 84.2935C862.867 82.859 864.412 83.564 866.062 85.7618C868.345 88.791 870.324 92.1474 873.783 94.0909C875.483 94.6811 876.638 93.6578 877.821 92.6855C878.269 92.3556 878.771 92.1434 879.298 92.0141C883.602 92.1001 886.08 95.6309 888.865 97.9159C891.831 100.33 893.988 101.381 897.543 99.8031C899.22 99.0532 901.244 98.3832 903.119 99.5214C902.031 96.4559 905.026 95.9068 906.496 94.4286C906.931 94.2426 907.378 94.1059 907.821 94.0173C907.692 92.2484 909.276 91.2965 910.954 90.5306C913.187 89.5089 915.529 88.7068 917.488 87.1604C918.046 86.8727 918.622 86.7317 919.235 86.707C924.002 87.3672 927.745 84.4357 931.888 82.9432C935.132 81.7719 937.916 81.7677 940.551 84.1036C940.802 84.3521 940.983 84.6588 941.117 84.9612C945.354 82.0748 949.92 81.5882 953.911 83.5157C953.951 83.4387 953.988 83.3776 954.044 83.3021C954.459 82.6306 955.022 82.1016 955.686 81.6947C955.474 80.8531 955.573 79.9432 955.705 79.0202C958.075 68.3706 966.278 64.5238 975.557 61.9357C976.465 62.0346 977.292 61.9649 978.065 61.7774C979.778 60.6438 981.442 59.3284 983.359 58.7777C984.291 58.0888 985.237 57.4174 986.264 56.9146C987.216 56.5338 988.185 56.1385 989.14 55.7258C991.083 55.4192 992.279 53.7711 993.961 52.9732C994.257 52.9034 994.548 52.8817 994.837 52.8919C994.404 51.466 994.694 50.2189 996.502 49.9806C998.474 49.7089 998.563 51.3775 998.325 52.7583C997.91 55.1871 999.307 56.8135 1000.6 58.5113C1001.09 60.507 1002.1 62.5492 1000.64 64.3994C1002.41 64.9635 1003.4 66.5856 1004.82 67.6177C1005.14 67.8401 1005.42 68.0916 1005.71 68.3431C1006.9 69.1455 1007.7 70.1688 1008.16 71.3723C1008.68 72.2415 1009.13 73.1688 1009.54 74.1092C1009.75 74.6442 1009.83 75.1834 1009.84 75.7328C1010.09 75.836 1010.32 75.9538 1010.57 76.041C1011.1 76.2824 1011.55 76.5978 1011.95 76.9888C1012.14 77.2316 1012.29 77.4873 1012.44 77.7591C1016.68 77.5166 1019.61 79.2669 1020.54 84.2364C1020.98 86.6304 1022.51 87.9139 1025.07 87.9054C1031.48 87.9261 1037.9 87.9627 1043.66 84.4253C1043.99 84.0357 1044.33 83.6318 1044.67 83.2437C1044.5 79.9559 1047.57 79.6711 1049.41 78.9038C1050.83 78.3239 1051.53 80.6613 1052.11 82.1003C1052.39 82.8024 1053.16 83.9695 1053.2 83.9724C1057.8 81.4742 1062.86 85.4337 1067.42 82.947C1067.84 82.5822 1068.24 82.2002 1068.64 81.8339C1069.19 79.3848 1072.06 78.0347 1071.79 75.2047C1072.94 74.7934 1074.1 74.3995 1075.25 74.0042C1076.34 73.4432 1077.12 73.2399 1077.66 73.2893C1079.61 73.4668 1078.77 76.7922 1079.79 78.0452C1082.5 78.2924 1085.21 78.5877 1087.92 78.867L1087.92 78.835C1088 77.6169 1088.08 76.3989 1088.16 75.1809C1088.69 74.0849 1089.21 72.9876 1089.73 71.8903C1092.66 69.2553 1095.83 69.3675 1098.91 71.3735C1100.16 72.1642 1101.36 72.8054 1102.74 73.0278C1102.74 73.0118 1102.74 72.9798 1102.78 72.9667C1103.19 72.6179 1103.64 72.352 1104.12 72.1224C1104.45 72.0875 1104.79 72.0699 1105.13 72.0845C1105.58 70.6427 1106.36 69.4568 1107.66 68.656C1108.22 67.5631 1108.78 66.4526 1109.34 65.3596C1113.1 58.3351 1116.6 57.8803 1121.64 63.5783C1123.14 65.279 1125.08 66.6163 1126.82 68.1135L1126.84 68.1149C1127.46 66.2211 1128.08 64.3432 1128.72 62.4508C1129.11 62.0991 1129.5 61.7314 1129.88 61.3637C1132.33 61.5702 1132.84 63.8899 1134.21 65.2723C1137.34 66.2666 1140.69 66.5722 1143.59 68.2715C1149.28 65.5175 1150.14 69.8679 1151.28 73.8083C1157.7 69.6706 1162.29 73.6999 1166.72 77.5214C1169.09 79.5593 1171.24 81.2382 1174.48 79.6308C1176.25 81.5655 1178.1 82.6209 1180.03 82.7969C1181.96 82.9729 1184.04 82.2434 1186.17 80.6156L1186.12 80.5633C1186.92 79.0721 1188.22 78.546 1189.81 78.5461C1192.57 77.6364 1195.33 76.792 1198.05 75.782C1199.68 75.1731 1200.81 75.7111 1201.33 77.1616C1203.16 82.1966 1205.96 82.1938 1209.02 80.957C1209.76 80.5414 1210.47 79.9615 1211.16 79.1534C1211.62 78.5183 1212.02 77.8294 1212.42 77.1565C1212.96 76.3833 1213.48 75.6245 1214 74.8499C1217.56 73.0623 1220.77 70.8561 1223.36 67.8199C1223.42 67.6804 1223.48 67.5408 1223.53 67.3838C1223.61 67.1818 1223.71 66.9972 1223.81 66.8126C1223.79 66.6019 1223.84 66.3811 1224.03 66.1558C1224.22 65.8346 1224.37 65.5105 1224.5 65.1674C1224.93 64.916 1225.34 64.679 1225.76 64.4276C1226.25 64.0047 1226.77 63.6007 1227.3 63.2141C1227.57 63.1574 1227.84 63.1182 1228.11 63.0615C1230.21 63.9628 1232.25 64.0356 1234.1 62.4471C1234.57 61.3614 1235.01 60.8861 1235.4 60.921C1235.83 60.9602 1236.21 61.5751 1236.54 62.6216C1238.62 62.6014 1238.97 60.4241 1240.36 59.5681C1243.21 58.1831 1244.53 59.3996 1244.88 62.2368C1251.72 64.0526 1258.33 63.3017 1264.81 60.7803C1264.81 60.7004 1264.76 60.6146 1264.75 60.5172C1265.27 60.1291 1265.8 59.7266 1266.32 59.3386C1266.82 58.6264 1267.32 57.9142 1267.82 57.218C1270.37 53.3722 1273.27 55.4421 1276.13 56.7344C1276.11 56.9743 1276.09 57.214 1276.07 57.4539C1276.1 57.4408 1276.12 57.4422 1276.13 57.4277C1284.59 55.5866 1293.06 53.9244 1301.79 55.0107C1303.96 55.2884 1305.45 56.2143 1306.06 58.3655C1308.65 61.6651 1311.32 64.8906 1315.95 65.3284C1316.27 65.2615 1316.58 65.2094 1316.91 65.1585C1317.17 63.5699 1318.31 62.6744 1319.5 61.8155C1319.58 61.0655 1319.67 60.2996 1319.75 59.5496C1325.51 55.1735 1331.94 57.017 1338.24 57.4302C1340.47 57.5684 1340.72 59.7354 1342.12 60.6526C1341.7 61.3241 1341.27 61.9942 1340.84 62.6643C1340.75 64.3489 1341.05 65.8111 1342.91 66.4158C1343.66 66.0816 1344.42 65.6993 1345.16 65.7662C1345.64 65.8098 1346.11 66.0469 1346.56 66.6356C1347.28 70.8769 1353.06 73.6446 1350.13 78.9555C1350.5 79.3596 1350.85 79.7782 1351.2 80.1968C1353.19 80.7652 1354.37 81.9368 1354.28 84.1374C1354.94 85.5836 1356.01 86.4878 1357.62 86.7307C1360.26 82.2483 1363.47 81.2513 1367.5 85.1004C1371.68 87.6094 1375.37 84.5444 1379.29 84.1114C1380.4 84.3906 1381.52 84.6856 1382.65 84.9662C1384.88 83.4925 1387.13 82.0537 1389.35 80.5306C1391.29 79.208 1393.16 78.7982 1395.02 80.6443C1395.44 80.6501 1395.84 80.6705 1396.25 80.6923L1396.16 80.829C1400.66 79.2406 1404.75 77.8397 1407.26 84.2265C1408.25 86.7353 1412.23 85.4374 1414.78 86.2181C1418.86 84.3492 1418.06 89.3215 1420.24 90.1327C1421.57 91.3987 1422.73 93.3102 1424.37 93.3466C1424.46 92.646 1424.59 91.9485 1424.67 91.2304C1425.37 88.5691 1427.1 86.6158 1429.11 84.8645C1430.12 83.9082 1431.56 83.5071 1432.4 82.3429C1432.79 81.8138 1433.19 81.4315 1433.59 81.1292C1435.08 78.9592 1437.29 79.1935 1439.5 81.1354C1441.25 82.698 1443.02 83.4393 1444.94 83.5019C1445.66 83.2607 1446.37 82.8421 1447.11 82.1358C1447.6 81.8742 1448.13 81.7129 1448.69 81.6344C1448.88 81.6679 1449.03 81.7145 1449.19 81.761C1450.22 80.8235 1451.46 80.2916 1452.45 80.9777C1456.45 83.7933 1459.5 82.298 1462.52 80.429C1462.79 79.5671 1463.01 78.7168 1462.89 77.8025C1464.19 74.9552 1465.34 71.932 1469.08 71.4831C1468.79 70.8115 1468.92 70.2433 1469.67 69.7797L1469.63 69.7273C1470.1 68.6256 1470.73 67.6837 1471.91 67.2754C1472.12 64.9091 1474.17 63.8061 1476.13 62.6463C1477.6 62.5388 1479.02 62.1203 1480.47 61.8166C1480.43 61.555 1480.58 61.3108 1480.95 61.087C1481.02 60.7542 1481.09 60.4388 1481.17 60.1234C1481.91 60.1423 1482.63 60.1439 1483.37 60.1628C1486.39 58.4232 1487.48 60.7953 1488.87 62.6791C1491.87 66.7898 1494.03 71.9192 1500.12 72.4748C1500.48 72.4588 1500.85 72.4603 1501.2 72.4604C1501.6 72.2061 1501.95 72.19 1502.27 72.4284C1502.53 72.1944 1502.8 71.9125 1503.04 71.5796C1505.99 70.6074 1509.18 74.2994 1512.01 71.0917C1512.15 70.7662 1512.28 70.4233 1512.39 70.0788C1512.82 69.8434 1513.24 69.6238 1513.66 69.4043C1516.05 67.0745 1518.4 64.7099 1521.22 62.9194C1522.66 62.4703 1524.2 62.6913 1524.93 63.8382C1528.21 68.9081 1534.08 71.7327 1536.39 77.65C1538.03 81.8303 1540.81 78.2302 1543.07 78.2594C1543.09 78.1155 1543.15 77.992 1543.18 77.8495C1545.56 74.6491 1548.78 73.5083 1552.7 72.8981C1558.17 72.0423 1563.4 70.0368 1568.98 69.2871C1572.45 68.8295 1573.19 63.7059 1576.97 62.9227C1578.49 62.0289 1579.76 60.8226 1581.05 59.6831C1585.12 58.6674 1585.9 62.4306 1587.38 64.5164C1588.57 66.172 1589.72 67.1475 1591.1 67.3539C1592.13 67.1738 1593.14 66.8308 1594.19 66.4268C1594.32 64.3585 1595.48 63.61 1597.46 64.677C1598.95 65.4576 1600.29 65.9024 1601.88 65.2571C1602.25 64.888 1602.61 64.5013 1602.96 64.1307C1605.69 66.33 1606.8 70.7196 1611.16 70.7461C1611.16 70.7141 1611.17 70.698 1611.17 70.6661C1612.83 67.6255 1614.83 68.114 1616.6 70.4034C1618.08 72.2959 1618.17 74.6738 1618.5 77.0576C1619.07 81.2044 1619.74 85.5852 1624.81 87.0957L1613.22 385.566L1612.81 385.641L1611.03 377.194L1607.04 379.231L1601.69 375.068L1601.2 380.44L1595.14 384.031L1592.64 376.485L1587.47 377.448C1587.47 377.448 1583.6 377.885 1582.23 379.033C1580.85 380.182 1575.8 386.734 1575.72 384.18C1575.63 381.625 1574.69 374.526 1574.69 374.526L1569.06 376.995L1565.57 383.803L1561.8 376.333L1557.38 375.93L1552.61 379.526C1552.61 379.526 1546.07 374.464 1546.15 373.521C1546.24 372.578 1541.47 375.964 1541.47 375.964L1538.88 379.871L1534.16 382.939L1529.68 379.661L1524.68 382.075L1516.16 384.813L1512.52 379.371L1512.95 374.638C1512.95 374.638 1504.61 378.972 1503.67 378.886C1502.73 378.8 1500.65 377.015 1500.65 377.015L1492.71 376.936L1488.72 382.311L1483.64 375.158L1477.99 381.334L1478.68 373.739L1475.73 371.245L1471.51 375.633L1466.5 374.87L1460.95 379.781C1460.95 379.781 1459.1 382.788 1458.6 381.163C1458.11 379.522 1456.77 376.853 1456.92 375.27L1457.35 370.586L1450.12 373.055L1449.86 375.9L1447.52 380.588L1445.41 375.817L1442.16 380.099L1438.06 379.725L1436.46 376.275L1433.33 375.667L1428.27 378.834L1422.67 381.063L1418.71 382.621L1414.46 380.315L1412.14 377.879L1408.55 378.825L1404.57 384.201L1397.28 387.358L1391.28 386.811L1386.83 390.227L1381.38 387.183L1378.95 386.01L1377.05 389.335L1373.16 393.768L1360.21 392.588L1357.06 395.799L1354.22 395.54L1352.87 392.87L1346.96 394.878L1335.68 399.912L1332.1 397.361L1324.78 393.825L1318.48 393.25L1317.07 391.203L1312.97 394.344L1306.02 397.209L1298.45 396.519L1296.33 398.872L1290.34 398.327L1284.88 402.295L1280.32 406.973L1281.12 398.132L1277.69 397.496L1273.04 399.619L1264.55 402.037L1261.07 405.219L1256.78 400.056L1251.07 399.858L1247.06 398.525L1240.71 398.269C1240.71 398.269 1237.81 398.649 1237.3 397.329C1236.78 395.992 1235.04 394.254 1235.04 394.254L1230.95 397.057L1230.75 399.28L1226.06 402.028L1223.93 397.384L1222.07 393.378L1218.97 395.965L1217.1 398.987L1214.38 400.963L1210.28 400.589L1210.48 398.383L1205.86 400.187L1203.97 400.015L1202.36 396.692L1200.33 394.589L1195.34 397.003L1191.44 394.423L1188.19 398.576L1183.45 398.145L1184.06 391.509L1179.45 393.33L1177.61 396.032L1175.4 399.329L1174.08 396.339L1170.98 398.926L1171.18 396.719L1167.74 396.084L1164.21 399.905L1161.69 399.675L1162.15 394.623L1156.95 399.243L1153.93 400.887L1154.48 394.875L1151.41 397.142L1148.44 394.953L1146.37 396.683L1143.85 399.968L1135.95 399.248L1134.41 395.271L1132.78 395.766L1126.36 396.455L1124.66 394.076L1122.63 391.972L1119.86 397.782L1116.99 394.328L1114.82 397.322L1111.66 397.034L1108.28 392.261L1106.33 389.212L1106.1 391.739L1101.69 391.337L1099.73 388.289L1096.51 388.641L1091.41 388.805L1089.36 387.021L1086.46 383.887L1083.08 382.628L1080.63 381.454L1077.02 382.721L1074.86 385.394L1069.88 387.793L1066.81 386.562L1066.66 388.145L1064.03 392.692L1058.06 395.324L1056.28 397.403L1053.12 397.115L1053.21 396.155L1047.12 396.568L1044.35 392.172L1040.72 389.924L1037.66 395.705L1035.45 395.505L1035.71 392.659L1034.25 391.252L1031.52 389.73L1029.6 393.375L1029.22 397.484L1025.96 394.946L1022.45 391.45L1020.95 390.668L1020.77 392.571L1016.21 393.751L1015.98 396.277L1010.92 395.816L1007.57 397.735L1002.92 399.859L1001.31 396.536L1001.6 393.37L998.646 397.889L998.156 403.261L993.606 400.928L991.218 406.127L991.073 407.71L988.463 404.925L988.578 403.662L984.448 403.608L982.103 404.974L979.694 399.982L980.127 395.234L978.576 394.77L975.881 396.443L972.577 397.738L968.476 397.364L968.246 399.89L964.059 400.46L962.766 397.166L959.695 399.433L957.48 402.73L957.825 398.94L954.129 397.652L951.493 398.686L945.493 398.139L946.583 403.655L945.147 401.928L942.482 403.281L940.498 407.566L937.149 402.473L937.61 397.42L935.97 394.401L933.622 392.269L931.668 396.234L928.887 398.85L924.523 397.823L924.841 394.338L926.766 390.693L923.261 394.194L920.234 396.159L918.509 394.083L914.871 392.156L912.799 393.885L913.058 391.039L910.072 388.849L904.276 389.594L900.231 388.597L898.173 386.813L894.391 386.469L889.942 386.385L885.175 386.257L883.115 384.49L881.057 382.706L877.93 385.597L876.465 384.19L871.089 387.214L870.513 393.53L868.219 387.275L864.584 388.846L861.062 385.655L860.572 391.027L856.572 392.904L852.559 395.085L849.008 392.214L847.397 388.876L844.109 390.172L842.44 387.473L841.031 381.927L840.686 385.717L833.182 387.902L833.642 382.85L830.946 381.008L828.382 384.595L824.57 381.056L821.411 384.282L820.98 389.015L816.254 385.086L813.356 385.451L810.252 381.024C810.252 381.024 806.877 383.28 807.053 384.876C807.212 386.487 806.415 391.524 806.415 391.524L802.748 383.21L804.861 380.856L800.846 379.538L801.105 376.693L797.817 377.989L794.906 381.867L791.413 381.871L786.763 383.994C786.763 383.994 785.068 385.113 784.533 384.097C783.981 383.096 783.065 379.191 783.065 379.191L780.256 382.127L775.895 384.599L772.823 383.352L772.534 386.518L769.694 386.259L767.693 383.852L764.706 381.661L760.661 377.149L760.286 381.258L757.157 384.165L753.887 392.153L749.726 388.905L746.407 387.006L746.84 382.257L741.248 384.295L739.014 380.915L739.706 373.321L735.88 376.809L733.386 372.745L730.661 371.223L731.324 363.948L728.571 366.261C728.571 366.261 727.109 368.352 726.283 367.003C725.441 365.653 724.903 361.138 724.903 361.138L725.277 357.029L720.975 358.862L719.481 357.775L717.276 354.075L719.318 349.151L714.957 351.623L711.713 355.793L708.132 353.242L704.769 351.662L701.494 352.637L699.638 348.631L696.884 347.429L697.834 337.005L690.416 338.07L688.23 341.223L682.941 343.288L680.071 343.349C680.071 343.349 676.841 344.006 675.941 343.295C675.058 342.57 673.504 338.608 673.504 338.608L673.044 343.66L667.857 344.783L668.173 341.314L664.726 344.175L661.856 344.236L658.799 343.007L657.566 339.057L654.29 340.048L653.829 345.101L650.669 344.813L647.147 341.622C647.147 341.622 647.958 339.778 647.377 339.096C646.813 338.4 642.971 335.18 642.971 335.18L643.101 333.757L637.564 335.01L634.48 337.598L629.741 337.166L626.38 339.085L621.556 343.11L618.067 346.613L613.79 344.643L613.415 348.752L609.562 352.544L606.707 349.092L603.806 345.958L602.282 341.676L599.734 345.265L596.271 344.949L588.836 342.675L586.141 344.348L584.561 344.204L582.014 347.793L577.099 345.749L575.087 350.353L568.639 351.362L565.799 351.103L563.77 348.999L562.041 343.425L559.291 349.236L557.452 351.938L554.963 354.887L554.645 358.372L551.934 360.044L549.238 358.202L546.11 361.093L542.796 366.207L537.402 362.54L537.72 359.054L535.309 350.548L534.473 359.726L531.633 359.467L528.533 362.054L526.202 366.613L522.216 364.976L519.841 366.678L516.594 363.819L513.928 365.172L513.61 368.658L507.338 371.278L504.918 373.282L502.222 371.44L502.078 373.023L497.528 370.69L494.732 376.819L489.605 380.818L488.345 380.703L487.082 377.073L489.34 373.136L485.387 378.192L481.88 378.195L479.444 377.022L475.111 375.66L476.143 381.815L474.218 385.46L471.074 385.174L469.35 386.613L458.307 385.606L455.888 387.611L451.484 387.209L452.001 381.533L449.904 387.065L447.977 390.726L445.456 390.497L444.366 384.98L442.296 390.209L439.922 391.894L440.441 386.203L436.674 389.051L433.922 391.348L432.023 391.174L432.542 385.483L429.009 392.818L424.764 394.027L422.85 390.661L420.504 392.043L418.459 389.938L416.604 389.463L413.721 393.021L410.564 396.231L407.97 393.448L404.58 395.686L404.436 397.269L400.654 396.924L397.351 401.733L395.017 399.28L392.959 397.496L389.799 397.208L390.029 394.682L384.101 389.999L383.726 394.108L380.085 388.682L377.955 387.52L377.348 394.171L375.264 396.206L373.451 395.09L371.045 393.597L366.018 396.314L362.932 395.404L363.967 392.516L365.912 387.067L359.483 398.282C359.483 398.282 356.845 395.801 356.931 394.857L357.306 390.748L354.873 393.074L351.6 397.564L348.815 393.167L344.978 396.96L342.677 401.2L341.269 399.169L337.893 397.894L337.287 404.545L335.388 404.372L331.028 406.844L331.172 405.261L325.983 402.87L323.112 399.416L322.765 403.222L319.204 407.346L317.114 402.384L315.333 404.447C315.333 404.447 313.075 408.384 312.262 406.714C311.463 405.061 308.347 400.94 308.347 400.94L305.781 401.029L303.724 402.76L303.58 404.343C303.58 404.343 302.732 406.587 301.824 406.133C300.916 405.68 297.319 403.127 297.319 403.127L294.683 404.16L294.25 408.909L292.498 410.651L289.977 410.422L286.311 412.328L283.24 414.596L282.924 418.065L275.344 417.374L273.288 419.105L271.01 416.028L270.751 418.874C270.751 418.874 269.26 421.285 267.68 421.141L262.956 420.711C262.956 420.711 258.25 426.972 259.016 425.462C259.798 423.937 261.748 412.959 261.748 412.959L258.953 408.674L256.456 404.819L257.331 416.055L256.956 420.164L253.345 414.418L251.707 414.914L247.839 415.512L245.518 413.076L246.037 407.384L241.62 410.48L238.405 414.33L237.055 411.66L237.285 409.134L233.273 411.315C233.273 411.315 232.128 409.937 231.953 408.325C231.778 406.713 230.776 403.752 230.776 403.752C230.776 403.752 226.706 406.573 226.241 404.613L225.791 402.669L219.678 406.884L213.997 406.366L207.607 406.751L202.577 405.97L199.477 408.557L194.493 407.458C194.493 407.458 195.698 411.711 194.118 411.567C192.538 411.423 187.318 405.853 187.318 405.853L185.49 401.543L185.836 397.754L182.186 402.838L179.665 402.608L173.086 404.878C173.086 404.878 171.202 401.192 171.317 399.929L172.008 392.351L166.693 398.234L164.202 401.199L160.767 397.049L155.172 395.588L150.576 393.573L147.951 387.595L148.268 384.125L145.139 387.032L143.528 383.693L137.906 382.536L135.934 379.809L133.064 379.87L132.69 383.979L128.094 381.964L129.3 386.217L127.49 388.599L124.445 387.048L122.043 392.568L120.519 388.286L120.835 384.817L117.764 387.084L113.344 386.681L111.749 383.344L108.023 378.861L108.339 375.392L104.789 372.505L104.182 379.156L95.5459 379.642L95.9204 375.533L90.4873 379.181L87.1395 377.603L82.8926 375.297L79.0536 375.576L75.9801 374.345L73.4281 370.92L69.789 369.009L67.7892 366.586L68.0486 363.74L65.1646 367.314L61.3272 371.107L59.023 371.848L57.5176 371.066L54.8212 369.224L51.054 372.073L49.1709 371.901L46.7049 367.533L43.6618 369.497L41.7628 369.324L40.0664 366.928L38.7329 364.26L34.7047 366.44L32.1832 366.21C32.1832 366.21 27.967 367.099 28.4012 365.865C28.8355 364.631 30.4999 360.317 30.4999 360.317L26.24 365.039L21.9669 366.552L22.2262 363.706L17.2695 362.303L13.7484 362.627C13.7484 362.627 11.4749 366.563 11.2724 365.255C11.0683 363.963 9.87896 359.711 9.87896 359.711L6.82285 365.172L1.78027 364.712L2.15477 360.603L-1.8562 366.299L-1.51084 362.51L-4.87145 364.428C-4.87145 364.428 -7.97292 363.501 -8.20605 362.529C-8.42326 361.558 -10.0336 358.219 -10.0336 358.219L-14.3374 360.067L-14.0198 356.582L-20.7281 356.922L-24.1239 352.163L-23.6619 347.094L-26.7605 353.196L-25.5828 357.753L-30.3383 354.143L-29.9055 349.395L-33.7282 356.382L-36.7991 358.649L-40.9308 355.08L-45.2053 356.609L-45.4647 359.455L-50.4812 355.177L-54.4352 356.719L-57.6837 353.876L-59.7112 355.287L-65.567 353.157L-63.8093 358.412L-67.7253 355.83L-70.5642 359.086L-77.6663 353.328L-80.3903 355.321L-85.1852 359.027L-89.3461 355.778L-93.013 354.17L-97.0253 356.352L-101.451 345.421L-99.8656 356.093L-102.46 356.485L-104.518 354.702L-105.095 361.033L-109.17 356.841L-109.429 359.687L-114.412 362.102L-116.776 359.968L-118.544 358.534L-121.526 363.356L-124.397 359.902C-124.397 359.902 -128.875 360.139 -129.108 359.167C-129.324 358.18 -130.298 354.915 -130.298 354.915L-133.09 364.543L-135.51 366.547L-139.972 366.785L-146.915 362.638L-151.929 361.859L-155.667 364.387L-158.678 369.53L-162.868 366.601L-167.969 366.78L-169.779 369.163L-173.457 374.567L-174.789 374.171Z" fill="#121212"/>
</svg>
