<svg width="272" height="46" viewBox="0 0 272 46" fill="none" xmlns="http://www.w3.org/2000/svg">
<path d="M272 1.93337V22.4553C271.993 22.5337 271.985 22.6145 271.978 22.6954C271.919 22.6905 271.861 22.6856 271.804 22.6783C271.506 22.9331 271.207 23.1879 270.909 23.4428L270.527 23.4575C270.664 24.0774 270.236 24.0235 269.852 24.0235C269.605 23.6216 269.231 23.5065 268.822 23.4599V23.482C268.565 23.7785 268.223 23.9181 267.858 24.0186C267.807 24.0284 267.756 24.0309 267.704 24.0309C267.477 24.1558 267.257 24.32 266.98 24.2514C266.975 24.4548 266.97 24.6582 266.965 24.8615C266.843 24.8713 266.721 24.8787 266.601 24.8885C266.44 25.1139 266.28 25.3418 266.119 25.5697C266.021 25.7167 265.918 25.8588 265.789 25.9642C265.659 26.0696 265.507 26.1406 265.312 26.1504C265.322 26.2141 265.331 26.2779 265.341 26.3391C265.275 26.3538 265.211 26.3661 265.148 26.3783C265.033 26.6111 264.918 26.8439 264.803 27.0767C264.891 27.1551 264.979 27.2335 265.067 27.3119C264.287 27.5422 263.998 28.6278 263.01 28.4954C262.437 28.8287 261.823 29.1007 261.366 29.603C261.3 29.6226 261.234 29.6422 261.168 29.6618C261.124 29.7623 261.077 29.8628 261.033 29.9632C261.124 30.2058 261.062 30.4386 260.982 30.6689C260.517 30.9189 260.6 31.6932 259.942 31.7593C259.932 31.8206 259.92 31.8843 259.91 31.9456C259.707 31.9676 259.497 32.0191 259.352 31.8059C259.108 31.8182 259.049 32.0117 258.973 32.1931C258.364 32.8056 258.083 33.629 257.618 34.3347C257.559 34.3298 257.501 34.3323 257.442 34.3421C257.214 34.3421 256.984 34.3396 256.784 34.2783C256.581 34.2146 256.405 34.0921 256.28 33.8471C255.698 33.8373 255.969 33.2908 255.776 33.0384L255.262 33.0017C254.974 32.6782 255.169 32.024 254.533 31.9431C254.286 31.8525 254.002 32.0779 253.692 31.7888C254.201 31.676 254.785 31.5878 254.315 30.8968C254.264 30.8993 254.21 30.8944 254.159 30.8846C253.758 31.1222 253.567 30.7596 253.344 30.566C253.149 30.3969 253.039 30.1176 252.711 30.1642C252.667 30.1029 252.623 30.0441 252.581 29.9828C252.623 29.8603 252.664 29.7353 252.703 29.6128C252.596 29.4119 252.459 29.26 252.199 29.3188C252.124 29.4021 252.053 29.4486 251.989 29.4486C251.918 29.4486 251.852 29.3898 251.798 29.26C251.434 29.1056 251.05 28.9708 250.932 28.5224C250.829 28.0666 250.585 27.7015 250.235 27.4001C250.203 27.2972 250.171 27.1967 250.14 27.0938C249.795 26.91 249.45 26.7238 249.105 26.5376C248.425 26.4273 247.847 25.9324 247.118 26.0132H247.069C246.864 26.0132 246.783 25.8637 246.725 25.6849C246.402 25.6334 246.223 25.4423 246.181 25.1188C246.025 25.1213 245.866 25.1237 245.709 25.1262H245.707C245.298 25.3002 245.198 25.038 245.139 24.7194C245.526 24.1877 244.738 24.026 244.738 23.6167C244.738 23.58 244.743 23.5408 244.758 23.4991C244.016 23.1365 244.166 22.3426 243.916 21.7447C243.831 21.5388 243.99 21.2129 243.74 21.0953C243.429 20.9507 243.373 21.3085 243.236 21.4751C243.121 21.6148 243.001 21.703 242.862 21.703C242.788 21.703 242.71 21.6785 242.622 21.6246C242.5 21.6785 242.38 21.7349 242.258 21.7888C242.204 21.8157 242.15 21.8427 242.096 21.8696C241.844 21.9652 241.707 22.3646 241.37 22.2298C241.247 22.3475 241.122 22.4626 240.998 22.5778C240.929 22.6782 240.858 22.7763 240.79 22.8743C240.435 22.8302 240.08 22.7861 239.728 22.7395C239.131 22.4087 238.62 22.4553 238.329 23.134C238.17 23.504 237.864 23.4428 237.583 23.4918C237.428 23.8079 237.167 23.874 236.851 23.8079L236.675 23.6167C236.621 23.6241 236.567 23.6241 236.511 23.6167C236.137 23.4281 235.679 23.4183 235.513 22.8718C235.386 22.4577 234.987 22.6219 234.679 22.7444C234.559 22.9257 234.439 23.1071 234.322 23.2884C234.27 23.308 234.221 23.3202 234.168 23.3276C233.923 23.874 233.343 23.2614 233.052 23.6486C232.712 23.4673 232.365 23.3055 232.005 23.1806C231.645 23.0556 231.274 22.9674 230.887 22.9331H230.885C230.713 23.0948 230.571 23.2859 230.412 23.4599C230.253 23.6339 230.075 23.7883 229.835 23.8716C229.674 24.0284 229.468 23.9843 229.272 23.9941C229.025 24.0505 228.778 24.1068 228.531 24.1607C228.436 24.2416 228.34 24.32 228.247 24.4009C228.15 24.8689 227.905 25.2389 227.445 25.3859C227.076 25.5035 227.063 25.1017 226.902 24.9179C226.885 24.8836 226.87 24.8517 226.855 24.8174C226.789 24.788 226.723 24.7586 226.655 24.7268C226.202 24.5748 225.867 24.1926 225.388 24.0872C225.336 24.0358 225.29 23.9843 225.243 23.9353C225.224 23.9353 225.204 23.9377 225.185 23.9377C224.854 23.9377 224.544 23.8226 224.24 23.6363L224.213 23.6241C223.69 23.6388 223.421 23.2933 223.237 22.8816C223.11 22.5925 223.017 22.3303 222.626 22.4406C222.344 22.6979 222.112 22.5606 221.889 22.3499C221.904 22.2984 221.889 22.2494 221.858 22.2078C221.77 22.1098 221.684 22.0093 221.615 21.8941C221.586 21.8255 221.564 21.7545 221.547 21.6858C221.464 21.654 221.381 21.6393 221.3 21.6393C220.882 21.6393 220.497 22.0044 220.082 22.0485C220.016 22.2127 219.947 22.3769 219.879 22.5386C219.291 22.5533 218.704 22.568 218.117 22.5827C217.88 22.9208 217.706 23.3423 217.391 23.5751C216.892 23.9451 216.904 24.3935 216.967 24.8983C216.708 25.0478 216.39 25.1188 216.263 25.4374C216.048 25.5501 215.825 25.6481 215.637 25.7902C215.448 25.9299 215.294 26.1088 215.226 26.3808C215.03 26.4886 214.832 26.5988 214.634 26.7091C214.511 26.8561 214.384 26.8169 214.276 26.6969C214.174 26.5792 214.232 26.4151 214.193 26.2803C214.059 25.8392 213.856 25.5672 213.413 26.0108C213.347 26.0647 213.281 26.1161 213.212 26.17C213.095 26.4053 213.075 26.6405 213.207 26.8782C213.156 26.8929 213.105 26.9051 213.053 26.9125C212.801 27.5104 212.483 27.5962 212.116 27.013C211.913 26.6895 211.585 26.5425 211.289 26.3465C211.28 26.2975 211.267 26.2485 211.253 26.1994C211.304 26.1357 211.319 26.0622 211.321 25.9863C211.243 25.8564 211.17 25.7192 211.101 25.5746C210.891 25.2781 210.639 24.9963 210.746 24.5846C210.761 24.4499 210.773 24.3151 210.776 24.1779C210.783 24.1166 210.783 24.0554 210.781 23.9941C210.768 23.9132 210.756 23.8373 210.69 23.8226C210.389 23.7074 210.091 23.5922 209.79 23.4771C209.45 23.7172 209.178 23.4893 208.892 23.3521C208.809 23.5555 208.701 23.6314 208.579 23.6314C208.457 23.6314 208.315 23.553 208.173 23.4599C208.114 23.4085 208.06 23.3545 208.009 23.2957C208.004 23.2908 207.999 23.2835 207.997 23.2761C207.246 23.2614 206.504 23.1242 205.751 23.1536C205.602 23.1585 205.477 23.0532 205.453 22.8865C205.438 22.8816 205.423 22.8767 205.411 22.8718C205.061 23.1291 204.589 22.9453 204.229 23.1659C204.107 23.2173 203.987 23.281 203.867 23.3398C203.153 23.3006 203.048 23.1683 203.361 22.5582C203.361 22.5582 203.354 22.5508 203.351 22.5459C202.938 22.8253 202.417 22.7959 201.979 23.0041C201.81 23.0752 201.651 23.1683 201.46 23.1634C201.218 23.1046 200.961 23.0777 200.763 22.9257H200.758C200.685 22.9625 200.609 22.987 200.528 22.9993C199.745 23.0458 198.921 22.9453 198.317 23.629C198.265 23.6976 198.209 23.7564 198.143 23.8128C198.082 23.8544 198.016 23.8887 197.947 23.9181C197.925 24.0358 197.813 24.1313 197.71 24.1999C197.397 24.4107 197.289 24.7341 197.145 25.0429C196.876 25.332 196.523 25.4031 196.154 25.4325C196.132 25.4153 196.108 25.4055 196.083 25.3908C196.051 25.6677 195.875 25.7265 195.618 25.6579C195.672 26.2166 195.264 26.5351 194.96 26.91C194.769 27.0644 194.544 27.2237 194.307 27.1502C193.189 26.812 192.122 27.2188 191.041 27.3585C190.552 27.4222 190.185 27.3609 190.112 26.812C190.06 26.4151 189.786 26.4959 189.529 26.4249C188.972 26.2705 188.292 26.4665 187.859 25.9274C187.144 26.442 186.601 26.4543 186.065 25.9691C185.906 25.6506 185.799 25.3149 185.706 24.9718C185.574 24.1926 185.187 23.7246 184.326 23.8299C182.787 24.32 181.354 23.7809 179.91 23.3742C179.766 23.3325 179.683 23.1855 179.612 23.0507C179.607 23.036 179.605 23.0213 179.6 23.0066C179.517 22.9845 179.438 22.9502 179.365 22.9037C179.34 22.8841 179.318 22.862 179.296 22.84C178.562 23.2026 177.87 23.0875 177.33 22.5116C177.315 23.0777 176.931 23.1634 176.419 23.0875C176.094 22.9306 175.793 23.6314 175.465 23.3031C175.397 23.2957 175.331 23.2786 175.267 23.2516C175.108 23.1585 174.969 23.0262 174.776 22.9993C174.763 23.2712 174.78 23.6069 174.347 23.0041C174.274 22.9037 174.157 22.8375 174.044 22.9208C173.645 23.2222 173.288 23.0703 172.931 22.9257C172.828 22.9478 172.723 22.96 172.615 22.9576C172.54 22.9821 172.461 22.9968 172.381 23.0041C172.019 22.9429 171.656 23.1242 171.294 23.1095C171.086 23.1487 170.886 23.2051 170.702 23.3203C170.72 23.3546 170.737 23.3889 170.742 23.4256C170.751 23.5138 170.742 23.5947 170.707 23.6756C170.663 23.7491 170.602 23.8079 170.531 23.8544C170.524 23.8569 170.516 23.8569 170.507 23.8569C170.512 24.3421 170.154 24.3372 169.726 24.2416C169.487 24.1362 169.249 24.0112 168.988 24.1975C168.359 24.6434 167.686 24.3837 167.023 24.3372C167.004 24.4082 166.96 24.4646 166.891 24.5038C166.475 24.5503 166.101 24.494 165.856 24.1044C165.773 23.999 165.727 23.8814 165.744 23.7466C165.746 23.7417 165.749 23.7393 165.753 23.7368C165.629 23.6388 165.563 23.5065 165.538 23.3521C165.506 23.0875 165.511 22.8253 165.563 22.568C165.479 22.3229 165.267 22.296 164.812 22.4651C164.183 22.6954 163.425 23.0605 162.874 22.2323C162.874 22.2298 162.879 22.2298 162.881 22.2249C161.935 21.7251 162.008 22.7567 161.609 23.0777C161.575 23.1218 161.543 23.1389 161.509 23.134C161.509 23.1438 161.504 23.1536 161.502 23.1634C161.267 23.6486 160.939 24.0382 160.501 24.3739C159.821 24.8983 159.156 24.9032 158.437 24.5209C158.314 24.4548 158.18 24.4254 158.045 24.3911C157.935 24.5748 157.854 24.8027 157.615 24.7856C157.6 24.7954 157.59 24.8052 157.573 24.815C157.297 24.8493 157.133 24.7439 157.098 24.4866C156.812 24.739 156.374 24.5552 156.078 24.7807C155.533 24.984 154.916 25.011 154.481 25.4839C154.383 25.5868 154.219 25.5893 154.082 25.5011C154.219 25.849 154.146 26.1284 153.823 26.3342C153.661 26.3734 153.5 26.393 153.346 26.3759C153.155 26.4739 152.993 26.6062 152.952 26.8782C152.759 27.1306 152.587 27.4026 152.37 27.628C152.181 27.8191 151.949 28.1279 151.702 27.677C151.401 27.8167 151.2 27.5226 150.961 27.3977C150.628 27.3021 150.305 27.3413 150.014 27.5202C149.138 28.0593 148.316 27.8853 147.514 27.356C147.112 27.0595 146.496 27.2163 146.158 26.7924C146.266 27.231 145.823 27.3291 145.628 27.579C145.559 27.6305 145.481 27.6672 145.395 27.6868C145.248 27.6893 145.109 27.7064 144.974 27.7334C144.94 27.7579 144.906 27.7824 144.872 27.8069C144.881 27.8485 144.889 27.8926 144.896 27.9343C144.791 28.9095 144.223 28.5542 143.724 28.3974C143.741 28.4146 143.759 28.4268 143.773 28.444C143.847 28.5665 143.859 28.6988 143.859 28.8361C143.859 28.9292 143.837 29.0174 143.8 29.1007C143.536 29.7157 143.174 30.1911 142.406 30.1151C142.056 30.0808 141.828 30.4067 141.518 30.4999C141.518 30.5244 141.51 30.544 141.508 30.566C141.483 30.664 141.442 30.7498 141.381 30.8282C140.877 31.2056 140.356 31.5143 139.685 31.4996C138.893 31.4825 138.592 31.1908 138.668 30.4165C138.631 30.3577 138.597 30.294 138.565 30.2279C138.563 30.223 138.56 30.2181 138.56 30.2132C138.35 30.2181 138.122 30.1935 138.068 30.5096C137.645 30.9287 137.234 31.3673 136.571 31.3428C136.557 31.3599 136.542 31.3771 136.53 31.3991C136.52 31.4089 136.51 31.4212 136.5 31.431C136.52 31.507 136.517 31.5878 136.495 31.6711C136.356 31.9431 136.158 32.1391 135.835 32.1637C135.431 31.9603 134.91 31.9186 134.668 31.4898H134.661C134.521 31.4972 134.384 31.4923 134.247 31.4628L134.115 31.3232C133.824 31.5119 133.518 31.3624 133.401 31.1296C133.188 30.7106 132.841 30.642 132.486 30.539C132.562 30.7008 132.527 30.8503 132.405 30.9875C132.378 31.0095 132.349 31.0291 132.32 31.0487C132.327 31.11 132.302 31.1713 132.244 31.2325C131.801 31.2644 131.343 31.208 131.099 31.6907C131.089 31.7642 131.057 31.8255 131.013 31.8819C130.972 31.9554 130.913 32.0093 130.837 32.046C130.727 32.1343 130.61 32.22 130.551 32.3327C130.509 32.4111 130.46 32.4798 130.406 32.5484C129.668 33.009 129.362 33.8103 128.912 34.494C128.799 34.668 128.731 34.864 128.537 34.9742C128.454 35.0036 128.369 35.0159 128.281 35.011C128.237 35.0012 128.193 34.984 128.153 34.9644C128.31 35.3001 128.141 35.4864 127.774 35.5721C127.307 35.6799 126.837 35.7216 126.37 35.5648C126.346 35.5011 126.324 35.4447 126.306 35.3883C126.302 35.3957 126.299 35.4031 126.297 35.4104C125.761 35.8613 125.083 36.1087 124.638 36.7066C124.379 37.0521 124.029 37.1453 123.503 36.8243C123.077 36.5621 122.422 36.6748 121.852 36.6454C121.717 36.9321 121.509 36.986 121.235 36.839V36.8512C121.081 37.0056 120.917 37.0007 120.751 36.888C120.751 36.888 120.743 36.8929 120.741 36.8953C120.746 36.9027 120.753 36.91 120.758 36.9174C120.741 37.4123 120.521 37.5471 120.068 37.3315C119.909 37.2555 119.767 37.1673 119.643 37.0571C119.547 37.2041 119.449 37.3462 119.251 37.3683C118.676 37.2972 118.466 36.91 118.366 36.4297C118.202 36.4175 118.065 36.3415 117.933 36.2509C117.837 36.2141 117.742 36.1847 117.642 36.1602C117.289 35.9519 116.636 36.0696 116.756 35.3467C116.795 35.2879 116.846 35.2438 116.903 35.2095C116.443 35.0575 116.083 34.8321 116.152 34.3102C115.902 34.5528 115.658 34.467 115.376 34.1558C114.987 33.727 114.64 33.2443 114.087 32.9968C113.82 32.9306 113.659 33.1022 113.493 33.2663C113.429 33.3227 113.356 33.3619 113.277 33.3889C112.622 33.4354 112.196 32.9331 111.741 32.6243C111.257 32.2984 110.914 32.1686 110.395 32.4577C110.151 32.5949 109.852 32.7248 109.552 32.5778C109.759 33.0286 109.312 33.1536 109.109 33.3986C109.045 33.4329 108.979 33.4599 108.913 33.4795C108.957 33.7466 108.73 33.9132 108.485 34.0529C108.16 34.2391 107.815 34.3935 107.538 34.6557C107.457 34.7071 107.372 34.7365 107.279 34.7488C106.545 34.7145 106.017 35.2119 105.407 35.4962C104.93 35.7192 104.507 35.7584 104.074 35.4398C104.033 35.4055 104.001 35.3614 103.976 35.3173C103.372 35.8147 102.685 35.9519 102.051 35.7143C102.046 35.7265 102.041 35.7363 102.034 35.7486C101.98 35.8564 101.902 35.9446 101.806 36.0156C101.85 36.1406 101.848 36.2803 101.841 36.4224C101.628 38.074 100.434 38.7723 99.0592 39.2943C98.9198 39.2918 98.795 39.3139 98.68 39.3531C98.4354 39.5491 98.2005 39.7721 97.9168 39.8824C97.7847 40 97.6501 40.1151 97.5009 40.2058C97.3615 40.2768 97.2196 40.3504 97.0801 40.4263C96.789 40.4998 96.63 40.7669 96.3854 40.9115C96.3413 40.9262 96.2973 40.9335 96.2533 40.936C96.3389 41.1467 96.312 41.3403 96.0404 41.4016C95.7444 41.4702 95.7077 41.2178 95.7249 41.0046C95.7542 40.6297 95.5194 40.4018 95.2992 40.1617C95.1964 39.8652 95.0154 39.5687 95.2111 39.2673C94.9347 39.206 94.761 38.9733 94.5311 38.836C94.4797 38.8066 94.4332 38.7723 94.3867 38.738C94.1935 38.6326 94.0589 38.4881 93.9708 38.3116C93.8803 38.1867 93.7996 38.0519 93.7238 37.9147C93.6846 37.8363 93.665 37.7554 93.6553 37.6721C93.6161 37.6599 93.5794 37.6451 93.5403 37.6353C93.4571 37.6059 93.3837 37.5643 93.3177 37.5104C93.2859 37.4761 93.259 37.4393 93.232 37.4001C92.5911 37.4957 92.1214 37.2702 91.911 36.5278C91.8107 36.17 91.5612 35.996 91.1722 36.0328C90.1962 36.1186 89.2201 36.2019 88.3932 36.8194C88.3492 36.8831 88.3027 36.9492 88.2562 37.0129C88.3272 37.5104 87.8648 37.5961 87.5957 37.7383C87.3878 37.8461 87.2483 37.5006 87.1407 37.2898C87.0893 37.1869 86.9548 37.0203 86.9499 37.0203C86.2845 37.4638 85.4601 36.9321 84.802 37.3732C84.7433 37.4344 84.687 37.4981 84.6308 37.5594C84.5818 37.9392 84.1635 38.1842 84.2442 38.6106C84.0754 38.689 83.9042 38.765 83.7354 38.8409C83.5764 38.9414 83.4614 38.9831 83.3782 38.9831C83.0798 38.9831 83.1605 38.466 82.9893 38.2896C82.5734 38.2896 82.1575 38.2822 81.7416 38.2773V38.2822C81.7465 38.4685 81.7514 38.6547 81.7563 38.8409C81.6903 39.0149 81.6267 39.1889 81.5631 39.3629C81.1545 39.8039 80.6702 39.8309 80.1735 39.5687C79.9729 39.4658 79.7821 39.3849 79.5693 39.3702C79.5693 39.3727 79.5693 39.3776 79.5644 39.38C79.5057 39.4388 79.4421 39.4854 79.3712 39.527C79.3222 39.5368 79.2708 39.5442 79.2195 39.5466C79.1705 39.7721 79.0678 39.9632 78.8819 40.1029C78.8109 40.2768 78.7424 40.4533 78.6715 40.6272C78.1969 41.7471 77.6709 41.8647 76.827 41.0683C76.575 40.8306 76.2619 40.6542 75.9756 40.4508H75.9732C75.9047 40.7473 75.8362 41.0414 75.7653 41.3379C75.7114 41.3967 75.6576 41.4579 75.6038 41.5192C75.2295 41.5216 75.1194 41.1761 74.8919 40.985C74.4027 40.8772 73.8889 40.8772 73.4241 40.6591C72.5973 41.1565 72.4064 40.5072 72.1789 39.924C71.2591 40.6419 70.5057 40.0931 69.7791 39.5736C69.3901 39.2967 69.0403 39.0713 68.5706 39.3604C68.2746 39.0909 67.9786 38.9561 67.6826 38.9561C67.3866 38.9561 67.0808 39.0958 66.7799 39.3727L66.7872 39.38C66.6869 39.6177 66.4961 39.7157 66.2539 39.7378C65.8478 39.9142 65.4393 40.0808 65.0406 40.2719C64.8008 40.3871 64.6222 40.3209 64.5219 40.1078C64.1746 39.3678 63.7489 39.407 63.3012 39.6373C63.1936 39.7108 63.0933 39.8088 63.0003 39.9412C62.9392 40.0441 62.8878 40.1543 62.8364 40.2621C62.7655 40.3871 62.697 40.5096 62.6285 40.6346C62.1123 40.9556 61.6548 41.3354 61.3026 41.8328C61.2952 41.8549 61.2879 41.877 61.283 41.9015C61.2732 41.9333 61.261 41.9627 61.2487 41.9921C61.2536 42.024 61.2487 42.0583 61.2243 42.095C61.1998 42.1465 61.1802 42.1979 61.1656 42.2518C61.1044 42.296 61.0457 42.3376 60.9845 42.3817C60.916 42.4528 60.8427 42.5214 60.7668 42.5875C60.7277 42.5998 60.6861 42.6096 60.6469 42.6219C60.3142 42.514 60.0036 42.5312 59.7443 42.7983C59.688 42.9698 59.6268 43.0482 59.5681 43.0482C59.5021 43.0482 59.436 42.96 59.37 42.8056C59.0544 42.8375 59.0324 43.1732 58.8318 43.3227C58.4183 43.5726 58.2006 43.406 58.1077 42.9796C57.0435 42.7983 56.0478 43.0041 55.0987 43.477C55.0987 43.4893 55.1085 43.5015 55.1109 43.5162C55.0375 43.5824 54.9617 43.651 54.8883 43.7172C54.8222 43.8323 54.7562 43.9475 54.6901 44.0602C54.355 44.6802 53.8853 44.4057 53.4327 44.2489C53.4327 44.2122 53.4327 44.1754 53.4327 44.1386C53.4278 44.1411 53.4254 44.1411 53.4229 44.1436C52.1631 44.5405 50.8983 44.9105 49.5553 44.8664C49.2226 44.8542 48.9828 44.7341 48.8605 44.4155C48.4202 43.95 47.9701 43.4967 47.2606 43.4942C47.2117 43.5089 47.1652 43.5211 47.1163 43.5334C47.0992 43.7784 46.9377 43.9304 46.7689 44.0774C46.7665 44.1926 46.764 44.3102 46.7616 44.4253C45.947 45.1702 44.944 44.9791 43.9801 45.0036C43.6401 45.0134 43.5716 44.6875 43.3465 44.5675C43.4003 44.4596 43.4566 44.3518 43.5129 44.244C43.5031 43.9867 43.437 43.7686 43.1459 43.7025C43.0358 43.7637 42.9257 43.8324 42.8132 43.8324C42.7398 43.8324 42.664 43.8029 42.5881 43.7196C42.4193 43.085 41.502 42.7444 41.8738 41.8965C41.8127 41.8402 41.7539 41.7814 41.6952 41.7226C41.3846 41.6638 41.1888 41.502 41.1717 41.1663C41.0518 40.9556 40.8757 40.8331 40.6286 40.8184C40.2886 41.5363 39.814 41.7324 39.1486 41.2031C38.4783 40.8797 37.9597 41.3967 37.3701 41.5167C37.1964 41.4898 37.0227 41.4604 36.8466 41.4334C36.5286 41.6883 36.2057 41.9382 35.8901 42.2004C35.6137 42.4283 35.3348 42.5165 35.0265 42.2617C34.9629 42.2666 34.9018 42.269 34.8382 42.2715L34.8504 42.2494C34.1875 42.5532 33.5857 42.8228 33.116 41.8867C32.93 41.5192 32.3429 41.7716 31.9442 41.6883C31.3497 42.0289 31.4035 41.2619 31.061 41.1688C30.8409 40.9948 30.6378 40.7204 30.3883 40.7375C30.3834 40.8453 30.3736 40.9532 30.3712 41.0634C30.3027 41.4775 30.0654 41.7985 29.7841 42.0926C29.6446 42.2518 29.4318 42.3327 29.3193 42.5214C29.2679 42.6071 29.2116 42.6709 29.1554 42.7223C28.9596 43.0727 28.6196 43.0678 28.2575 42.8032C27.9689 42.59 27.69 42.5018 27.3964 42.519C27.2912 42.5655 27.1885 42.639 27.0858 42.7566C27.0148 42.8032 26.9365 42.8351 26.8534 42.8547C26.824 42.8522 26.7995 42.8473 26.7751 42.8424C26.6307 42.9992 26.4497 43.0972 26.2907 43.0066C25.6424 42.6341 25.1996 42.9036 24.7666 43.2295C24.7373 43.3643 24.7153 43.4966 24.7471 43.6339C24.5881 44.0847 24.456 44.5601 23.8933 44.6802C23.9471 44.7782 23.9349 44.8664 23.8272 44.9473L23.8346 44.9546C23.7783 45.1286 23.6951 45.2805 23.5215 45.3589C23.5215 45.7216 23.2254 45.9176 22.9441 46.121C22.7215 46.1578 22.5111 46.2411 22.2958 46.3072C22.3056 46.3464 22.2861 46.3856 22.2322 46.4248C22.2273 46.4763 22.22 46.5253 22.2127 46.5743C22.1001 46.5817 21.9901 46.5915 21.8775 46.5988C21.4421 46.9051 21.2439 46.5596 21.0066 46.2925C20.4929 45.7093 20.0941 44.9595 19.1596 44.9595C19.1058 44.9669 19.0496 44.9718 18.9957 44.9767C18.9395 45.0208 18.8857 45.0281 18.8343 44.9963C18.7976 45.0355 18.7609 45.082 18.7291 45.1359C18.2936 45.3246 17.7579 44.8076 17.3714 45.3344C17.3543 45.3859 17.3396 45.4398 17.3274 45.4937C17.2662 45.5353 17.205 45.5746 17.1439 45.6138C16.8136 46.0009 16.4883 46.393 16.0846 46.7042C15.8718 46.7924 15.6345 46.7802 15.5073 46.616C14.9397 45.8907 14.0077 45.5427 13.5747 44.6753C13.2664 44.0627 12.8946 44.6483 12.5497 44.6753C12.5497 44.6973 12.5423 44.7169 12.5399 44.739C12.2219 45.2585 11.7473 45.4765 11.1602 45.6236C10.3406 45.8294 9.57249 46.2068 8.73584 46.3979C8.21477 46.5155 8.17319 47.3045 7.60808 47.4761C7.39036 47.6329 7.21422 47.8338 7.0332 48.0249C6.42895 48.2357 6.25771 47.6745 6.00329 47.378C5.80025 47.1428 5.61188 47.0105 5.39905 46.9982C5.24493 47.0399 5.0957 47.106 4.94159 47.182C4.95137 47.4981 4.78502 47.628 4.46944 47.4932C4.23215 47.3952 4.02177 47.3462 3.78936 47.4662C3.73799 47.5275 3.68906 47.5912 3.64014 47.6525C3.19491 47.356 2.96495 46.7042 2.302 46.7605C2.302 46.7654 2.302 46.7679 2.302 46.7728C2.09161 47.258 1.78093 47.2114 1.48003 46.888C1.22806 46.6209 1.18158 46.2607 1.0984 45.9029C0.954068 45.2805 0.792611 44.6238 0 44.4645V24.9718L0.0611582 24.9546L0.447678 26.2141L1.02746 25.849L1.89835 26.4077V25.5844L2.76924 24.9546L3.25362 26.0671L4.02666 25.849C4.02666 25.849 4.60888 25.729 4.80214 25.5354C4.9954 25.3418 5.67304 24.2759 5.71952 24.6631C5.76844 25.0502 6.01063 26.1161 6.01063 26.1161L6.8326 25.6628L7.26804 24.5797L7.94568 25.6628H8.62331L9.2985 25.0502C9.2985 25.0502 10.3627 25.729 10.3627 25.8735C10.3627 26.0181 11.0403 25.4374 11.0403 25.4374L11.3803 24.8076L12.0555 24.2759L12.7821 24.7121L13.5086 24.2759L14.766 23.7417L15.3947 24.5185V25.2438C15.3947 25.2438 16.6032 24.4695 16.7476 24.4695C16.8919 24.4695 17.2319 24.7121 17.2319 24.7121L18.4404 24.614L18.9737 23.7417L19.8446 24.7586L20.6177 23.7417V24.9056L21.102 25.2438L21.6818 24.5185L22.4549 24.565L23.2303 23.7417C23.2303 23.7417 23.4701 23.259 23.5679 23.4991C23.6658 23.7417 23.9055 24.1289 23.9055 24.3715V25.0894L24.9697 24.614V24.1779L25.2608 23.433L25.6473 24.1289L26.0828 23.433H26.7115L27.0026 23.9353L27.487 23.9843L28.2111 23.433L29.033 23.0164L29.6128 22.7248L30.2904 23.0164L30.677 23.3545L31.2103 23.161L31.7411 22.2886L32.8053 21.7079H33.7251L34.3538 21.1272L35.2247 21.5143L35.6112 21.6589L35.8534 21.1272L36.3843 20.3994H38.3682L38.8037 19.8677H39.2391L39.4813 20.2548L40.3522 19.8677L41.9961 18.9463L42.5759 19.2845L43.7379 19.7207H44.7042L44.9464 20.0122L45.5262 19.4781L46.5439 18.9463H47.7034L47.9945 18.5592H48.9119L49.6874 17.8804L50.3161 17.1061V18.4612L50.847 18.5102L51.5246 18.123L52.782 17.6378L53.2664 17.1061L53.9905 17.8314L54.8614 17.7824L55.4901 17.9294L56.4588 17.8804C56.4588 17.8804 56.8943 17.7824 56.9897 17.976C57.0875 18.172 57.3762 18.4121 57.3762 18.4121L57.9584 17.9294V17.5888L58.6336 17.1061L59.0226 17.7824L59.3602 18.3656L59.7956 17.9294L60.0378 17.4442L60.4243 17.1061H61.053V17.4442L61.7307 17.1061H62.0193L62.3105 17.5888L62.648 17.8804L63.3746 17.4442L64.0033 17.7824L64.4388 17.1061H65.1653V18.123L65.8405 17.7824L66.0827 17.3462L66.3738 16.8145L66.616 17.2507L67.0514 16.8145V17.1526L67.5823 17.2017L68.0667 16.5719H68.4532V17.3462L69.1797 16.5719L69.6152 16.2803V17.2017L70.0506 16.8145L70.5326 17.1061L70.8237 16.8145L71.1613 16.2803H72.3722L72.6609 16.8635L72.9031 16.7655L73.8694 16.5719L74.1605 16.9101L74.4981 17.2017L74.8381 16.2803L75.3225 16.7655L75.6111 16.2803H76.0955L76.6753 16.9591L77.0153 17.3952V17.0081H77.6905L78.0306 17.4442L78.5149 17.3462L79.288 17.2507L79.6256 17.4933L80.1099 17.9294L80.6408 18.074L81.0298 18.2186L81.5606 17.976L81.8517 17.5398L82.5758 17.1061L83.0602 17.2507V17.0081L83.3978 16.2803L84.2687 15.7976L84.5109 15.457H84.9953V15.604L85.9151 15.457L86.397 16.0867L86.9792 16.3783L87.3658 15.457H87.7033V15.8932L87.9455 16.0867L88.381 16.2803L88.6232 15.6996V15.0698L89.154 15.4104L89.7362 15.8932L89.976 15.9912V15.6996L90.6536 15.457V15.0698H91.4291L91.911 14.7317L92.5887 14.3445L92.8798 14.8272V15.3124L93.2663 14.5847V13.7613L93.9904 14.0529L94.2815 13.2296V12.987L94.717 13.3742V13.5678L95.3457 13.5188L95.6833 13.2786L96.1187 14.0039V14.7317L96.3609 14.7807L96.7474 14.4891L97.2318 14.2465H97.8605V13.8593L98.4892 13.7148L98.7314 14.1975L99.1668 13.8103L99.458 13.2786V13.8593L100.038 14.0039L100.424 13.8103H101.344L101.102 12.987L101.344 13.2296L101.731 12.987L101.973 12.3083L102.553 13.036V13.8103L102.844 14.2465L103.23 14.5381L103.472 13.9084L103.859 13.4722L104.537 13.5678V14.1019L104.294 14.6827L104.779 14.1019L105.212 13.7613L105.503 14.0529L106.083 14.2955L106.374 14.0039V14.4401L106.858 14.7317L107.729 14.5381L108.358 14.6337L108.695 14.8763H109.275L109.953 14.8272L110.679 14.7807L111.017 15.0208L111.354 15.2634L111.79 14.7807L112.032 14.9743L112.808 14.4401V13.4722L113.243 14.3911L113.774 14.1019L114.354 14.5381V13.7148L114.936 13.3742L115.516 12.987L116.095 13.3742L116.387 13.8593L116.868 13.6168L117.16 14.0039L117.451 14.8272V14.2465L118.561 13.8103V14.5847L118.997 14.8272L119.337 14.2465L119.966 14.7317L120.401 14.1975V13.4722L121.174 14.0039L121.609 13.9084L122.143 14.5381C122.143 14.5381 122.625 14.1485 122.576 13.9084C122.529 13.6658 122.581 12.889 122.581 12.889L123.253 14.1019L122.965 14.4891L123.593 14.6337V15.0698L124.075 14.8272L124.464 14.1975L124.995 14.1485L125.673 13.7613C125.673 13.7613 125.915 13.5678 126.01 13.7148C126.108 13.8594 126.302 14.4401 126.302 14.4401L126.688 13.9549L127.317 13.5188L127.801 13.6658V13.1806H128.237L128.574 13.5188L129.059 13.8103L129.736 14.4401V13.8103L130.172 13.3252L130.558 12.0657L131.236 12.5018L131.767 12.7444V13.4722L132.589 13.085L132.975 13.5678V14.7317L133.508 14.1485L133.944 14.7317L134.379 14.9253V16.0402L134.766 15.6506C134.766 15.6506 134.959 15.3124 135.103 15.506C135.25 15.6996 135.395 16.3783 135.395 16.3783V17.0081L136.023 16.6699L136.265 16.8145L136.652 17.3462L136.41 18.123L137.038 17.6868L137.474 17.0081L138.054 17.3462L138.587 17.5398L139.071 17.3462L139.409 17.9294L139.844 18.074V19.6716L140.957 19.407L141.246 18.8973L142.022 18.5102L142.457 18.4612C142.457 18.4612 142.939 18.3166 143.086 18.4121C143.23 18.5102 143.521 19.0909 143.521 19.0909V18.3166L144.294 18.074V18.6057L144.779 18.123L145.214 18.074L145.696 18.2186L145.938 18.8018L146.423 18.6057V17.8314H146.907L147.487 18.2676C147.487 18.2676 147.389 18.5592 147.487 18.6547C147.582 18.7527 148.211 19.1889 148.211 19.1889V19.407L149.035 19.1399L149.468 18.7037H150.195L150.679 18.3656L151.357 17.6868L151.839 17.1061L152.516 17.3462V16.7165L153.05 16.0867L153.532 16.5719L154.016 17.0081L154.307 17.6378L154.645 17.0571H155.176L156.338 17.2997L156.724 17.0081H156.966L157.304 16.4273L158.079 16.6699L158.322 15.9422L159.288 15.6996H159.723L160.061 15.9912L160.401 16.8145L160.738 15.8932L160.981 15.457L161.318 14.9743V14.4401L161.707 14.1485L162.143 14.3911L162.578 13.9084L163.011 13.085L163.882 13.5678V14.1019L164.366 15.3614V13.9549H164.802L165.237 13.5188L165.528 12.7934L166.157 12.987L166.495 12.6954L167.028 13.085L167.415 12.8424V12.3083L168.332 11.8231L168.672 11.4849L169.107 11.7275V11.4849L169.831 11.7765L170.172 10.8062L170.896 10.1274H171.089L171.331 10.6616L171.042 11.2914L171.573 10.468L172.107 10.419L172.493 10.5636L173.171 10.7106L172.929 9.78927L173.171 9.20854H173.653L173.895 8.96595H175.588L175.928 8.6278H176.603V9.49768L176.845 8.6278L177.087 8.04461H177.474L177.716 8.86793L177.958 8.04461L178.296 7.75546V8.6278L178.829 8.14263L179.216 7.75546H179.507V8.6278L179.942 7.46387L180.571 7.22128L180.908 7.70645L181.246 7.46387L181.586 7.75546L181.875 7.80202L182.264 7.22128L182.699 6.68956L183.132 7.07671L183.617 6.68956V6.44696H184.196L184.632 5.67019L185.021 6.0108L185.358 6.25338H185.843V6.64055L186.809 7.27029V6.64055L187.438 7.41486L187.778 7.56189V6.54253L188.066 6.20437L188.358 6.34895L188.744 6.54253L189.471 6.05981L189.953 6.15538L189.835 6.60869L189.615 7.46387L190.437 5.67019C190.437 5.67019 190.872 6.0108 190.872 6.15538V6.78511L191.21 6.39796L191.645 5.67019L192.13 6.29994L192.661 5.67019L192.952 4.99389L193.194 5.28303L193.725 5.43006V4.4107H194.016L194.645 3.97454V4.21712L195.467 4.50872L195.951 4.99389V4.4107L196.435 3.7344L196.822 4.45971L197.064 4.12155C197.064 4.12155 197.353 3.49182 197.499 3.7344C197.644 3.97454 198.175 4.55773 198.175 4.55773L198.564 4.50872L198.852 4.21712V3.97454C198.852 3.97454 198.95 3.62168 199.094 3.67804C199.239 3.73439 199.821 4.07256 199.821 4.07256L200.208 3.87897V3.15121L200.45 2.86207H200.836L201.367 2.52147L201.803 2.1343V1.60258H202.965L203.253 1.31098L203.642 1.74714V1.31098C203.642 1.31098 203.835 0.923816 204.078 0.923816H204.802C204.802 0.923816 205.43 -0.0930852 205.335 0.147052C205.237 0.389639 205.093 2.08529 205.093 2.08529L205.577 2.69789L206.01 3.24922L205.722 1.55356V0.923816L206.35 1.74714L206.592 1.64913L207.172 1.50455L207.559 1.84271V2.71504L208.188 2.18331L208.623 1.55356L208.865 1.94073V2.32788L209.445 1.94073C209.445 1.94073 209.638 2.1343 209.687 2.37689C209.736 2.61947 209.929 3.05565 209.929 3.05565C209.929 3.05565 210.509 2.57048 210.607 2.86207L210.702 3.15121L211.573 2.4259H212.444L213.41 2.27888L214.186 2.32788L214.621 1.89172L215.394 1.98974C215.394 1.98974 215.152 1.35999 215.394 1.35999C215.637 1.35999 216.507 2.1343 216.507 2.1343L216.845 2.76405V3.34479L217.329 2.52147H217.716L218.685 2.08529C218.685 2.08529 219.022 2.61948 219.022 2.81306V3.97454L219.749 3.00664L220.086 2.52147L220.666 3.10466L221.537 3.24922L222.264 3.4918L222.746 4.36414V4.89588L223.181 4.4107L223.472 4.89588L224.343 4.99389L224.681 5.38105L225.116 5.33204V4.70229L225.843 4.94489L225.6 4.31514L225.843 3.92798L226.327 4.12155L226.616 3.24922L226.907 3.87897V4.4107L227.342 4.02355H228.02L228.309 4.50872L228.937 5.13846V5.67019L229.517 6.05981V5.04044L230.823 4.84687V5.47662L231.599 4.84687L232.13 5.04044L232.807 5.33204L233.387 5.23649L233.872 5.38105L234.307 5.86622L234.887 6.10637L235.224 6.44696V6.88313L235.613 6.29994L236.144 5.67019L236.484 5.52563L236.724 5.62363L237.159 5.86622L237.693 5.38105H237.981L238.417 6.0108L238.852 5.67019H239.143L239.434 6.0108L239.674 6.39796L240.256 6.0108H240.643C240.643 6.0108 241.272 5.81722 241.223 6.0108C241.174 6.20438 240.981 6.88313 240.981 6.88313L241.563 6.10637L242.191 5.81722V6.25338L242.965 6.39796L243.495 6.29994C243.495 6.29994 243.786 5.67019 243.835 5.86622C243.884 6.0598 244.124 6.68956 244.124 6.68956L244.513 5.81722H245.286V6.44696L245.817 5.52563V6.10637L246.301 5.76821C246.301 5.76821 246.786 5.86623 246.835 6.0108C246.881 6.15537 247.172 6.64055 247.172 6.64055L247.801 6.29994V6.83412L248.816 6.68956L249.398 7.36585V8.14263L249.785 7.17227L249.543 6.49597L250.316 6.9787V7.70645L250.8 6.59154L251.236 6.20437L251.913 6.68956L252.542 6.39796V5.96179L253.364 6.54253L253.944 6.25338L254.477 6.64055L254.766 6.39796L255.685 6.64055L255.345 5.86622L255.977 6.20437L256.363 5.67019L257.523 6.44696L257.909 6.10637L258.587 5.47662L259.264 5.91278L259.844 6.10637L260.424 5.7192L261.248 7.3193L260.859 5.7192L261.248 5.62363L261.586 5.86622V4.89588L262.264 5.47662V5.04044L262.988 4.60428L263.377 4.89588L263.665 5.08945L264.052 4.31514L264.536 4.80031C264.536 4.80031 265.214 4.7023 265.263 4.84687C265.309 4.99389 265.503 5.47662 265.503 5.47662L265.794 3.97454L266.134 3.63638L266.809 3.53836L267.922 4.07256L268.695 4.12155L269.228 3.68539L269.615 2.86207L270.292 3.24922L271.066 3.15121L271.308 2.76405L271.792 1.89172L272 1.93337Z" fill="#F0E74D"/>
</svg>
