<svg width="24" height="23" viewBox="0 0 24 23" fill="none" xmlns="http://www.w3.org/2000/svg">
<path d="M0.836487 8.63801C0.89545 8.27407 0.94136 7.90751 1.01608 7.54662C1.41126 5.63878 2.35332 4.02462 3.82109 2.70065C5.08136 1.56432 6.55543 0.815056 8.24375 0.482973C10.2386 0.0902324 12.1691 0.293148 14.0212 1.12794C15.8648 1.95924 17.279 3.24263 18.2692 4.9589C18.9156 6.07908 19.2882 7.28436 19.3918 8.56906C19.5462 10.4861 19.1163 12.2687 18.1054 13.9186C18.0118 14.0718 18.0626 14.1434 18.1684 14.2459C19.8437 15.8657 21.5149 17.4891 23.1888 19.1098C23.7609 19.664 23.9837 20.3072 23.7361 21.0726C23.3621 22.2277 21.8002 22.6772 20.8366 21.907C20.7097 21.8057 20.5872 21.6984 20.4711 21.5858C18.8449 20.0113 17.2182 18.4369 15.5974 16.8568C15.4719 16.7341 15.3886 16.7263 15.2437 16.8214C14.1369 17.5462 12.9176 18.0136 11.601 18.2034C9.05122 18.5708 6.70801 18.0468 4.62631 16.553C2.58332 15.0877 1.37075 13.1174 0.939109 10.6929C0.89725 10.4594 0.870244 10.2234 0.836487 9.98816C0.836487 9.53825 0.836487 9.08835 0.836487 8.63801ZM16.4072 9.30741C16.4094 5.95253 13.586 3.21994 10.1256 3.22692C6.6639 3.23434 3.85214 5.92897 3.85439 9.29388C3.85619 12.6981 6.65445 15.3757 10.1234 15.3892C13.5824 15.4023 16.4049 12.6623 16.4072 9.30741Z" fill="white"/>
</svg>
