<svg width="24" height="22" viewBox="0 0 24 22" fill="none" xmlns="http://www.w3.org/2000/svg">
<path d="M0.553101 8.34821C0.612063 7.98427 0.657973 7.61771 0.73269 7.25683C1.12788 5.34898 2.06993 3.73482 3.5377 2.41085C4.79797 1.27452 6.27204 0.525261 7.96036 0.193178C9.95519 -0.199563 11.8857 0.00335336 13.7378 0.838145C15.5814 1.66944 16.9956 2.95283 17.9858 4.66911C18.6322 5.78929 19.0049 6.99457 19.1084 8.27926C19.2628 10.1963 18.8329 11.9789 17.822 13.6288C17.7284 13.782 17.7792 13.8536 17.885 13.9561C19.5603 15.5759 21.2315 17.1993 22.9054 18.82C23.4775 19.3742 23.7003 20.0174 23.4527 20.7828C23.0787 21.9379 21.5169 22.3874 20.5532 21.6172C20.4263 21.5159 20.3038 21.4086 20.1877 21.296C18.5615 19.7215 16.9349 18.1471 15.3141 16.567C15.1885 16.4443 15.1052 16.4365 14.9603 16.5316C13.8535 17.2564 12.6342 17.7238 11.3176 17.9136C8.76784 18.281 6.42463 17.757 4.34292 16.2632C2.29993 14.7979 1.08737 12.8276 0.655723 10.4031C0.613864 10.1697 0.586858 9.93357 0.553101 9.69836C0.553101 9.24846 0.553101 8.79855 0.553101 8.34821ZM16.1238 9.01761C16.126 5.66274 13.3026 2.93014 9.84222 2.93712C6.38052 2.94454 3.56876 5.63918 3.57101 9.00409C3.57281 12.4083 6.37107 15.0859 9.83997 15.0994C13.299 15.1125 16.1215 12.3725 16.1238 9.01761Z" fill="white"/>
</svg>
